<svg width="161" height="118" viewBox="0 0 161 118" fill="none" xmlns="http://www.w3.org/2000/svg">
<path style="mix-blend-mode:multiply" d="M0.290039 73.0893L89.1063 124.663L144.746 91.3919L60.0065 38.7542L0.290039 73.0893Z" fill="url(#paint0_linear_154_69)" fill-opacity="0.5"/>
<path d="M51.985 103.759L53.228 104.48C51.9024 106.006 51.0303 107.872 50.7104 109.868C50.1047 114.177 52.6276 118.596 58.3 121.893C68.5811 127.865 85.3036 127.865 95.6531 121.893C101.405 118.574 103.97 114.108 103.364 109.779C102.869 106.308 100.335 102.932 95.769 100.261C87.6737 95.558 75.5703 94.5572 65.7475 97.275L62.1923 95.1682L53.1332 96.2901L42.2886 89.9697L42.6467 87.6734L43.1734 84.3341V81.8271L33.8562 83.7442L20.0779 75.4488L20.4729 74.0004L21.2366 71.2247V68.7124L4.1349 68.8915H4.03483V71.1247V71.3459L56.8148 102.215L53.0594 101.884L0.290039 71.0088V73.5211L51.985 103.759ZM87.1418 116.078C86.8506 116.094 86.5587 116.094 86.2675 116.078C85.3116 116.042 84.3751 115.797 83.5234 115.362C83.2079 115.228 82.9311 115.017 82.7185 114.748C82.5059 114.479 82.3643 114.161 82.3067 113.824V113.766C82.3383 113.207 82.7808 112.681 83.5445 112.275C84.5526 111.813 85.6484 111.575 86.7573 111.575C87.8661 111.575 88.962 111.813 89.9701 112.275C90.7496 112.686 91.1973 113.218 91.2237 113.776C91.2006 114.073 91.1031 114.358 90.9401 114.607C90.7772 114.856 90.554 115.059 90.2914 115.198C89.6484 115.593 88.9315 115.853 88.1846 115.962C87.8393 116.019 87.4912 116.058 87.1418 116.078Z" fill="#152242"/>
<path d="M51.9848 103.759C50.8798 105.592 50.4304 107.746 50.7102 109.868C51.2 113.344 53.7334 116.715 58.2998 119.386C68.5809 125.358 85.3034 125.358 95.6529 119.386C100.293 116.705 102.869 113.281 103.364 109.773C103.964 105.47 101.441 101.046 95.7688 97.7543C87.6735 93.0456 75.5701 92.0449 65.7473 94.7574L62.1921 92.6506L53.1224 93.7514L42.6623 87.6628L42.3042 87.4522L43.1837 81.8165L40.9874 80.5419L34.1773 81.3478C33.6549 81.4079 33.1269 81.299 32.6709 81.037L20.4727 74.0004L20.2831 73.8898C19.9509 73.6989 19.6685 73.4322 19.4589 73.1115C19.2492 72.7908 19.1183 72.4251 19.0767 72.0442C19.0351 71.6633 19.0841 71.278 19.2196 70.9196C19.3551 70.5612 19.5733 70.2398 19.8565 69.9817L21.2364 68.7124L19.1296 67.4905L5.71477 67.875L4.04515 68.8388L4.13469 68.8915L56.804 99.7136L54.8342 100.846L4.04515 71.1036L2.10692 69.9765L0.316162 71.0299L53.0961 101.905L53.2541 101.999C52.7808 102.548 52.3561 103.136 51.9848 103.759ZM87.1416 116.078C86.8503 116.094 86.5585 116.094 86.2672 116.078C85.3113 116.042 84.3749 115.797 83.5232 115.362C83.2077 115.228 82.9309 115.017 82.7183 114.748C82.5057 114.479 82.3641 114.161 82.3065 113.824V113.766C82.3381 113.207 82.7805 112.681 83.5442 112.275C84.5524 111.814 85.6482 111.575 86.7571 111.575C87.8659 111.575 88.9617 111.814 89.9699 112.275C90.7494 112.686 91.1971 113.218 91.2234 113.776C91.2004 114.073 91.1029 114.358 90.9399 114.607C90.7769 114.856 90.5538 115.059 90.2912 115.198C89.6481 115.593 88.9313 115.853 88.1844 115.962C87.8391 116.019 87.491 116.058 87.1416 116.078Z" fill="#0468FF"/>
<path d="M76.9446 123.999C70.1555 123.999 63.377 122.504 58.226 119.512C53.8017 116.926 51.0893 113.523 50.5626 109.889C50.2726 107.735 50.7279 105.545 51.853 103.685C52.1913 103.099 52.5752 102.541 53.0011 102.015L0 71.0088L2.10677 69.8079L4.14508 70.9983L54.8814 100.677L56.5616 99.7083L3.76059 68.8388L5.71462 67.7275L19.1716 67.343L21.4786 68.6861L19.9564 70.0871C19.6883 70.3299 19.4814 70.6328 19.3529 70.971C19.2243 71.3091 19.1776 71.6729 19.2167 72.0326C19.2557 72.3922 19.3794 72.7375 19.5775 73.0402C19.7757 73.3429 20.0427 73.5943 20.3567 73.7739L20.5463 73.8845L32.7129 80.9212C33.1433 81.1686 33.6421 81.2702 34.135 81.2109L40.982 80.405L43.3047 81.7533L42.4252 87.389L42.6938 87.547L53.1434 93.6197L62.2025 92.4926H62.2446L65.7471 94.5994C75.8596 91.8237 87.942 93.0193 95.8319 97.6279C101.336 100.825 104.133 105.26 103.495 109.795C102.969 113.481 100.214 116.915 95.716 119.512C90.5386 122.504 83.7442 123.999 76.9446 123.999ZM0.579363 71.0088L53.4488 101.936L53.3382 102.068C52.881 102.619 52.4705 103.208 52.111 103.827C51.016 105.633 50.5735 107.76 50.8575 109.852C51.3842 113.392 54.0177 116.736 58.3734 119.259C68.5965 125.2 85.2927 125.195 95.579 119.259C99.998 116.71 102.71 113.334 103.216 109.779C103.838 105.37 101.109 101.041 95.6949 97.907C87.8524 93.3459 75.8333 92.1503 65.7787 94.9259H65.7155L65.6629 94.8943L62.1498 92.7876L53.096 93.9147L53.0538 93.8884L42.1355 87.5259L43.015 81.8903L40.9504 80.6947L34.1877 81.49C33.6389 81.5535 33.0844 81.4371 32.6076 81.1582L20.2145 74.0162C19.8627 73.8141 19.5635 73.5318 19.3413 73.1923C19.119 72.8529 18.9799 72.4658 18.9353 72.0625C18.8907 71.6593 18.9417 71.2512 19.0844 70.8713C19.227 70.4915 19.4572 70.1506 19.7563 69.8764L20.994 68.7388L19.0979 67.638L5.76202 68.0172L4.33469 68.8441L57.1146 99.7136L54.8498 101.015L54.7814 100.972L2.10677 70.145L0.579363 71.0088ZM86.7043 116.236H86.2566C85.2802 116.196 84.3241 115.944 83.4546 115.499C83.1131 115.359 82.8141 115.133 82.5877 114.841C82.3612 114.55 82.2152 114.205 82.1642 113.84V113.766C82.1958 113.15 82.6645 112.581 83.4756 112.144C84.5043 111.672 85.6226 111.427 86.7543 111.427C87.886 111.427 89.0043 111.672 90.033 112.144C90.8704 112.586 91.3444 113.165 91.3708 113.771C91.348 114.093 91.2444 114.403 91.0694 114.674C90.8944 114.945 90.6539 115.167 90.37 115.32C89.7116 115.726 88.9766 115.993 88.2106 116.104C87.8619 116.163 87.5103 116.202 87.1572 116.22L86.7043 116.236ZM86.7517 111.722C85.6587 111.695 84.5751 111.93 83.5915 112.407C82.8699 112.791 82.4591 113.281 82.4328 113.782V113.824C82.4922 114.135 82.6276 114.427 82.827 114.673C83.0264 114.919 83.2836 115.112 83.5757 115.235C84.4053 115.662 85.3191 115.899 86.2513 115.93C86.5373 115.946 86.8239 115.946 87.1098 115.93C87.4543 115.917 87.7974 115.88 88.1369 115.82C88.8634 115.718 89.561 115.467 90.1857 115.083C90.4269 114.956 90.6326 114.771 90.7844 114.545C90.9361 114.319 91.0291 114.058 91.0547 113.787C91.0284 113.286 90.6123 112.797 89.875 112.407C88.9014 111.938 87.8319 111.704 86.7517 111.722Z" fill="#152242"/>
<path d="M77.25 120.191C71.8093 120.191 66.3738 119.106 62.2393 116.936C58.1047 114.766 55.9189 111.933 55.9189 108.878C55.9189 105.823 58.1627 102.963 62.2393 100.83C70.5136 96.4902 83.9812 96.4902 92.2608 100.83C96.3269 102.963 98.5811 105.823 98.5811 108.878C98.5811 111.933 96.3427 114.798 92.2608 116.936C88.1789 119.075 82.6908 120.191 77.25 120.191ZM77.25 98.0966C71.8988 98.0966 66.5529 99.15 62.5026 101.299C58.6156 103.337 56.4772 106.039 56.4772 108.878C56.4772 111.717 58.6156 114.424 62.5026 116.468C70.6453 120.739 83.8916 120.739 92.0343 116.468C95.9213 114.424 98.0597 111.727 98.0597 108.878C98.0597 106.029 95.916 103.337 92.0343 101.299C87.9577 99.1605 82.596 98.0966 77.25 98.0966Z" fill="#152242"/>
<path d="M92.1355 101.067C100.357 105.381 100.357 112.381 92.1355 116.705C83.9139 121.029 70.5833 121.013 62.3616 116.705C54.1399 112.396 54.1399 105.381 62.3616 101.067C70.5833 96.7535 83.9139 96.7483 92.1355 101.067Z" fill="#F3F3F3"/>
<path d="M77.2502 120.086C71.8305 120.086 66.4108 119.001 62.2815 116.842C58.2471 114.735 56.0244 111.885 56.0244 108.868C56.0244 105.85 58.2523 103.021 62.2815 100.909C70.5348 96.5798 83.9602 96.5798 92.2135 100.909C96.2427 103.016 98.4654 105.85 98.4654 108.868C98.4654 111.885 96.248 114.719 92.2135 116.842C88.0895 119.033 82.6909 120.086 77.2502 120.086ZM77.2502 97.965C71.8831 97.965 66.5214 99.0183 62.4395 101.183C58.5209 103.237 56.3615 105.96 56.3615 108.846C56.3615 111.733 58.5157 114.461 62.4395 116.52C70.6033 120.808 83.8918 120.808 92.0555 116.52C95.9794 114.461 98.1335 111.738 98.1335 108.846C98.1335 105.955 95.9741 103.237 92.0555 101.183C87.9578 99.071 82.6119 97.9966 77.2502 97.9966V97.965Z" fill="#152242"/>
<path d="M90.9391 112.244C92.3085 112.96 92.3085 114.124 90.9391 114.845C90.161 115.2 89.3159 115.383 88.461 115.383C87.6061 115.383 86.7611 115.2 85.9829 114.845C84.6135 114.124 84.6135 112.96 85.9829 112.244C86.7604 111.887 87.6057 111.703 88.461 111.703C89.3163 111.703 90.1616 111.887 90.9391 112.244Z" fill="white"/>
<path d="M92.1403 102.289C83.8712 97.9281 70.4721 97.9281 62.261 102.289C58.5741 104.248 56.5464 106.761 56.1882 109.331C56.1565 109.12 56.1354 108.907 56.125 108.694C56.125 108.578 56.125 108.467 56.125 108.351C56.283 105.613 58.316 102.9 62.2452 100.814C70.4563 96.4481 83.8659 96.4481 92.1298 100.814C96.1326 102.921 98.2078 105.676 98.35 108.451C98.3651 108.791 98.351 109.131 98.3079 109.468C97.9655 106.85 95.9167 104.285 92.1403 102.289Z" fill="#152242"/>
<path d="M83.3651 112.712V112.797C83.4125 113.666 84.0656 114.298 84.8503 114.724C85.1571 114.891 85.4779 115.03 85.8089 115.14C86.5679 115.391 87.359 115.531 88.158 115.557C88.3844 115.557 88.6057 115.557 88.8374 115.557C89.2878 115.543 89.7367 115.498 90.1805 115.42C90.5754 115.356 90.9647 115.261 91.3445 115.135C91.7884 114.993 92.2116 114.793 92.6033 114.54C92.9381 114.363 93.2205 114.101 93.4221 113.78C93.6236 113.459 93.7372 113.091 93.7514 112.712C93.7198 112.028 93.2248 111.348 92.224 110.827C91.0674 110.296 89.8098 110.021 88.5372 110.021C87.2646 110.021 86.0069 110.296 84.8503 110.827C83.9075 111.364 83.4019 112.033 83.3651 112.712ZM88.158 115.346C87.3851 115.319 86.6277 115.121 85.9406 114.767C85.6846 114.66 85.4599 114.49 85.2877 114.272C85.1154 114.055 85.0012 113.797 84.9557 113.524V113.481C85.0032 113.211 85.1205 112.957 85.2959 112.746C85.4714 112.534 85.6991 112.372 85.9564 112.275C86.7707 111.9 87.6565 111.706 88.553 111.706C89.4494 111.706 90.3353 111.9 91.1496 112.275C91.7869 112.612 92.1503 113.039 92.1714 113.492C92.1515 113.732 92.0716 113.962 91.939 114.163C91.8065 114.364 91.6256 114.528 91.4129 114.64C90.8946 114.961 90.3153 115.171 89.7117 115.256C89.4313 115.305 89.148 115.335 88.8637 115.346C88.6287 115.362 88.393 115.362 88.158 115.346Z" fill="#152242"/>
<path d="M98.2613 124.152C96.4213 124.152 94.6422 123.493 93.2471 122.293L93.0733 122.151L93.2787 122.056C93.5842 121.908 93.8844 121.761 94.1847 121.603L94.2689 121.561L94.3374 121.619C95.4647 122.478 96.844 122.941 98.2613 122.936C99.3819 122.939 100.485 122.654 101.463 122.107C102.441 121.559 103.261 120.769 103.844 119.812C104.426 118.854 104.752 117.763 104.79 116.643C104.827 115.523 104.575 114.412 104.057 113.418C103.539 112.424 102.774 111.581 101.835 110.97C100.895 110.358 99.8143 110 98.6959 109.929C97.5775 109.858 96.4596 110.077 95.4506 110.564C94.4416 111.052 93.5756 111.792 92.9364 112.712C92.6875 113.068 92.474 113.447 92.2991 113.845C92.071 114.099 91.8087 114.321 91.5196 114.503C91.3386 114.624 91.1504 114.733 90.956 114.83L90.6769 114.972L90.7453 114.666C91.0807 113.255 91.8067 111.967 92.8402 110.95C93.8737 109.932 95.1728 109.226 96.5889 108.913C98.0049 108.6 99.4806 108.691 100.847 109.178C102.213 109.664 103.415 110.526 104.314 111.663C105.214 112.801 105.775 114.169 105.933 115.611C106.091 117.052 105.84 118.51 105.208 119.815C104.576 121.121 103.589 122.222 102.361 122.993C101.132 123.763 99.7116 124.173 98.2613 124.173V124.152Z" fill="#D11D04"/>
<path d="M98.2606 108.852C99.4821 108.851 100.686 109.146 101.769 109.71C102.852 110.275 103.782 111.093 104.481 112.095C105.18 113.097 105.626 114.253 105.782 115.464C105.938 116.676 105.799 117.907 105.376 119.053C104.953 120.199 104.26 121.226 103.355 122.046C102.45 122.867 101.36 123.456 100.178 123.764C98.9964 124.073 97.7574 124.091 96.567 123.817C95.3766 123.544 94.2699 122.986 93.3413 122.193C93.6468 122.051 93.9522 121.898 94.2524 121.745C95.3099 122.545 96.5821 123.01 97.9059 123.082C99.2297 123.153 100.545 122.827 101.682 122.146C102.819 121.465 103.727 120.46 104.289 119.259C104.851 118.059 105.042 116.717 104.836 115.408C104.631 114.098 104.039 112.88 103.136 111.909C102.233 110.938 101.061 110.259 99.7692 109.959C98.4779 109.66 97.1264 109.752 95.8882 110.226C94.6499 110.7 93.5815 111.532 92.8198 112.618C92.5651 112.977 92.348 113.362 92.172 113.766C91.9515 113.989 91.7079 114.189 91.4452 114.361C91.2668 114.476 91.0822 114.582 90.8922 114.677C91.2902 113.02 92.2336 111.545 93.5708 110.488C94.9081 109.432 96.5616 108.855 98.2659 108.852H98.2606ZM98.2606 108.562C96.4889 108.565 94.7696 109.163 93.3788 110.261C91.988 111.358 91.0065 112.891 90.5919 114.614L90.4445 115.219L91.0028 114.94C91.2014 114.838 91.3947 114.725 91.5821 114.603C91.8659 114.422 92.1276 114.208 92.3616 113.966L92.3985 113.929V113.882C92.5691 113.492 92.7791 113.122 93.0253 112.776C93.6127 111.941 94.3919 111.259 95.2974 110.788C96.2029 110.317 97.2083 110.07 98.229 110.068C99.2387 110.067 100.234 110.306 101.133 110.766C102.032 111.226 102.809 111.893 103.399 112.712C103.989 113.532 104.375 114.48 104.527 115.478C104.678 116.476 104.589 117.496 104.268 118.454C103.947 119.411 103.403 120.278 102.68 120.983C101.958 121.689 101.078 122.212 100.113 122.51C99.1486 122.808 98.1268 122.872 97.1324 122.697C96.138 122.522 95.1996 122.112 94.3947 121.503L94.2472 121.392L94.0839 121.477C93.7942 121.629 93.4887 121.777 93.1833 121.924L92.7777 122.114L93.1201 122.404C94.0834 123.227 95.2313 123.805 96.4662 124.089C97.7011 124.373 98.9864 124.354 100.213 124.035C101.439 123.715 102.569 123.104 103.508 122.253C104.448 121.402 105.167 120.337 105.606 119.148C106.045 117.96 106.19 116.683 106.028 115.426C105.867 114.169 105.405 112.97 104.68 111.93C103.956 110.89 102.991 110.041 101.868 109.455C100.744 108.868 99.4961 108.562 98.229 108.562H98.2606Z" fill="#152242"/>
<path style="mix-blend-mode:multiply" d="M86.2574 87.0888L161 43.8999L107.446 12.9146L35.7317 58.6526C34.4466 59.3742 85.6675 87.4311 86.2574 87.0888Z" fill="url(#paint1_linear_154_69)" fill-opacity="0.5"/>
<path d="M35.3994 62.7713L75.17 84.8871L75.1858 80.6051L35.41 58.4893L35.3994 62.7713Z" fill="#152242"/>
<path d="M75.1699 84.8871L117.348 60.359L117.358 56.0823L75.1857 80.6051L75.1699 84.8871Z" fill="#152242"/>
<path d="M35.7893 34.4141L35.7313 58.6525L75.1859 80.6051L75.2439 58.4524L55.9511 27.4775L35.7893 34.4141Z" fill="white"/>
<path d="M75.3177 80.8526L75.1018 80.7315L35.584 58.7368V58.6472L35.6472 34.3087L35.742 34.2771L56.0144 27.3037L75.3915 58.4155V58.4629L75.3177 80.8526ZM35.8737 58.563L75.0386 80.3575L75.1018 58.4945L55.888 27.6513L35.9369 34.4983L35.8737 58.563Z" fill="#152242"/>
<path d="M75.1857 80.6052L116.895 56.3668L116.958 34.5248L75.2437 58.4525L75.1857 80.6052Z" fill="#F3F3F3"/>
<path d="M75.038 80.858L75.1012 58.3682L75.1749 58.3313L117.1 34.272L117.036 56.451L116.968 56.4932L75.038 80.858ZM75.3908 58.5367L75.3171 80.3524L116.736 56.2825L116.81 34.7618L75.3908 58.5367Z" fill="#152242"/>
<path d="M78.2832 83.1175L86.2573 87.3468L86.2731 83.0648L78.2832 78.8302V83.1175Z" fill="#152242"/>
<path d="M78.2832 78.8039L86.2679 83.0911L86.2784 58.2523L78.2832 53.9545V78.8039Z" fill="white"/>
<path d="M86.4146 83.3334L78.1349 78.8881V53.7227L86.4251 58.1732L86.4146 83.3334ZM78.4246 78.7143L86.1249 82.8488V58.3365L78.4246 54.1967V78.7143Z" fill="#152242"/>
<path d="M30.2686 33.2975L55.8922 24.4333L97.601 0.194824L72.7411 8.67459L30.2686 33.2975Z" fill="white"/>
<path d="M30.3174 33.4344L30.1963 33.1711L72.6846 8.54816L97.5551 0.0578613L97.6762 0.321208L55.9674 24.5491L30.3174 33.4344ZM96.2647 0.805766L72.79 8.8115L31.6447 32.6549L55.8726 24.2858L96.2647 0.805766Z" fill="#152242"/>
<path d="M30.2686 33.2975L31.9961 36.1732L55.06 28.3518L77.9659 62.5237L80.6046 61.5441L55.9817 24.428L30.2686 33.2975Z" fill="#152242"/>
<path d="M55.8945 24.4333L80.607 61.5441L122.316 37.3056L97.6034 0.194824L55.8945 24.4333Z" fill="white"/>
<path d="M80.5833 61.739L80.5096 61.6284L55.6865 24.3859L97.6482 0L97.7219 0.115873L122.519 37.3531L80.5833 61.739ZM56.0973 24.4807L80.6465 61.3493L122.108 37.2583L97.5586 0.389753L56.0973 24.4807Z" fill="#152242"/>
<path d="M112.713 30.1321L96.8065 22.5582C96.8065 22.5582 90.1702 28.3519 89.7804 28.5309L86.2674 39.9338V87.3626L112.871 71.9041V30.822L112.76 30.8852L112.713 30.1321Z" fill="#F3F3F3"/>
<path d="M86.1201 87.6155V39.8918L89.6595 28.4415L89.7174 28.4099C90.0124 28.2677 94.0574 24.7704 96.7067 22.4582L96.7804 22.395L96.8647 22.4372L112.871 30.0215V30.6167L112.992 30.5482V71.9727L112.918 72.0095L86.1201 87.6155ZM86.4151 39.9602V87.1098L112.75 71.8357V31.0749L112.65 31.1329L112.608 30.2375L96.8278 22.7268C95.9113 23.5274 90.6234 28.136 89.9018 28.6258L86.4151 39.9602Z" fill="#152242"/>
<path d="M83.8289 47.8764L85.9831 46.6335L99.5718 24.4491L112.939 31.0012L114.53 30.1532L99.1346 22.5741L83.8289 47.8764Z" fill="#152242"/>
<path d="M83.8292 47.8764L99.1349 22.574L80.1897 14.8422L83.8292 47.8764Z" fill="white"/>
<path d="M83.7445 48.3189L80.0576 14.6105L80.2841 14.7053L99.382 22.5003L83.7445 48.3189ZM80.3789 15.0687L83.9393 47.434L98.9185 22.6478L80.3789 15.0687Z" fill="#152242"/>
<path d="M72.1375 35.5096L76.056 33.2343L76.0666 11.4977L72.148 13.7783L72.1375 35.5096Z" fill="#F3F3F3"/>
<path d="M71.988 35.7624V13.694L76.2016 11.2449V33.3186L71.988 35.7624ZM72.2883 13.8625V35.2621L75.9224 33.1553V11.7558L72.2883 13.8625Z" fill="#152242"/>
<path d="M67.9277 11.3449L72.1465 13.7782L76.0651 11.4977L71.8463 9.06433L67.9277 11.3449Z" fill="#B92617"/>
<path d="M67.9128 29.2262L72.1369 35.5097L72.1475 13.7783L67.9286 11.345L67.9128 29.2262Z" fill="white"/>
<path d="M72.2785 35.989L67.77 29.2684V11.0922L72.289 13.694L72.2785 35.989ZM68.065 29.1841L71.9941 35.0356V13.8626L68.0702 11.5873L68.065 29.1841Z" fill="#152242"/>
<path d="M72.1396 15.2793L76.8483 12.5458V10.9604L72.1449 13.694L72.1396 15.2793Z" fill="#152242"/>
<path d="M66.8789 10.655L72.1458 13.6941L76.8492 10.9605L71.5823 7.92151L66.8789 10.655Z" fill="white"/>
<path d="M72.1563 13.8626L66.5997 10.655L71.5927 7.75293L77.1546 10.9605L72.1563 13.8626ZM67.179 10.655L72.1563 13.5308L76.57 10.9605L71.5927 8.09001L67.179 10.655Z" fill="#152242"/>
<path d="M68.3436 10.7024L72.0621 12.846L75.3908 10.9183L71.6671 8.76941L68.3436 10.7024Z" fill="#F3F3F3"/>
<path d="M72.0617 13.0147L68.0536 10.7025L71.6667 8.5957L75.6801 10.9132L72.0617 13.0147ZM68.6329 10.6972L72.0617 12.6828L75.0955 10.9184L71.6667 8.95385L68.6329 10.6972Z" fill="#152242"/>
<path d="M66.8741 12.2404L72.141 15.2794L72.1463 13.6941L66.8794 10.655L66.8741 12.2404Z" fill="#152242"/>
<path d="M86.2782 87.3521L112.913 71.9147V67.6432L86.2782 83.0806V87.3521Z" fill="#152242"/>
<path d="M105.371 30.2428C105.136 29.7078 104.761 29.2458 104.286 28.905C103.811 28.5777 103.246 28.4048 102.669 28.4099C101.903 28.4333 101.156 28.6585 100.504 29.063C98.9716 30.0258 97.7299 31.3877 96.9124 33.0027C96.4959 33.7748 96.1572 34.5864 95.9011 35.4255C95.6535 36.225 95.498 37.0503 95.4376 37.8851V40.1868L105.866 34.1772V32.2021C105.823 31.5242 105.655 30.8601 105.371 30.2428Z" fill="#152242"/>
<path d="M103.758 29.7055C103.401 29.4584 102.976 29.3294 102.542 29.3369C102.109 29.3449 101.683 29.4398 101.288 29.616V35.8626L105.033 33.7084V32.4285C104.917 31.1697 104.464 30.2006 103.758 29.7055Z" fill="#D11D04"/>
<path d="M101.125 36.1154V29.5212L101.209 29.4843C101.618 29.2682 102.077 29.1637 102.539 29.1812C103.002 29.1988 103.451 29.3378 103.843 29.5844C104.596 30.1111 105.075 31.1065 105.186 32.4022V33.7768L101.125 36.1154ZM101.415 29.716V35.615L104.886 33.6083V32.418C104.786 31.2224 104.359 30.3112 103.674 29.8266C103.339 29.6167 102.956 29.4962 102.562 29.4768C102.167 29.4575 101.774 29.5398 101.42 29.716H101.415Z" fill="#152242"/>
<path d="M97.6288 33.3608C96.8855 34.7192 96.4301 36.2163 96.291 37.7586V38.733L100.436 36.3418V30.0847C99.2535 30.9384 98.2912 32.0614 97.6288 33.3608Z" fill="#D11D04"/>
<path d="M96.165 38.9753V37.7533C96.3005 36.1866 96.7615 34.6653 97.5186 33.287C98.1932 31.9686 99.1695 30.8281 100.368 29.9583L100.595 29.8055V36.4313L96.165 38.9753ZM97.7451 33.4239C97.0118 34.7644 96.5636 36.2419 96.4284 37.7639V38.4802L100.268 36.2628V30.3691C99.2138 31.1956 98.3498 32.2393 97.7346 33.4292L97.7451 33.4239Z" fill="#152242"/>
<path d="M94.2098 75.6542L107.467 68.0014V55.5345L94.2098 63.1874V75.6542Z" fill="#152242"/>
<path d="M100.071 70.9245L106.318 67.3377V57.5201L100.071 61.1069V70.9245Z" fill="#D11D04"/>
<path d="M99.9296 71.1721V61.0174L99.998 60.9806L106.461 57.2937V67.4167L106.392 67.4589L99.9296 71.1721ZM100.219 61.1649V70.6454L106.171 67.2271V57.7467L100.219 61.1649Z" fill="#152242"/>
<path d="M95.3524 73.6686L98.8971 71.6619V61.8444L95.3524 63.8511V73.6686Z" fill="#D11D04"/>
<path d="M95.2108 73.9162V63.7668L99.0451 61.5916V71.7462L95.2108 73.9162ZM95.5005 63.909V73.3895L98.7555 71.5461V62.0656L95.5005 63.909Z" fill="#152242"/>
<path d="M94.2098 58.7105L107.467 51.0577V38.5908L94.2098 46.2437V58.7105Z" fill="#152242"/>
<path d="M100.071 53.9755L106.318 50.394V40.5764L100.071 44.1579V53.9755Z" fill="#D11D04"/>
<path d="M99.9296 54.2494V44.0737L99.998 44.0316L106.461 40.3447V50.4783L106.392 50.5204L99.9296 54.2494ZM100.219 44.2423V53.7227L106.171 50.3045V40.824L100.219 44.2423Z" fill="#152242"/>
<path d="M95.3524 56.7249L98.8971 54.7182V44.9006L95.3524 46.9073V56.7249Z" fill="#D11D04"/>
<path d="M95.2108 56.9725V46.8178L99.0451 44.6478V54.8025L95.2108 56.9725ZM95.5005 46.9653V56.4458L98.7555 54.6076V45.1271L95.5005 46.9653Z" fill="#152242"/>
<path d="M66.1041 49.7515C65.3297 46.9487 64.1002 44.2921 62.4646 41.8879C60.7852 39.3249 58.5583 37.1663 55.9442 35.5676C54.47 34.6587 52.7992 34.1169 51.0723 33.9875C50.1386 33.9431 49.2055 34.0863 48.3282 34.4089C48.0081 34.5299 47.6982 34.6761 47.4012 34.846L36.3406 41.2454C36.6364 41.0716 36.9465 40.9236 37.2676 40.8029C38.15 40.4796 39.0892 40.3398 40.0275 40.3921C41.7555 40.5165 43.4273 41.0588 44.8994 41.9722C47.5143 43.5699 49.7414 45.7287 51.4199 48.2925C52.2415 49.5069 52.9636 50.7857 53.5793 52.1163C54.1834 53.4233 54.6784 54.778 55.0593 56.1666C55.6605 58.2548 55.9202 60.4264 55.8283 62.5975C55.6123 66.4002 54.1218 69.1022 51.8886 70.3926L62.9176 63.9985C65.156 62.7081 66.6413 60.0114 66.8625 56.2034C66.9566 54.0261 66.7006 51.8477 66.1041 49.7515Z" fill="white"/>
<path d="M51.9473 70.519L51.8051 70.2662C54.0857 68.9389 55.4499 66.2212 55.6553 62.6028C55.759 60.4417 55.5081 58.2783 54.9126 56.1982C54.5422 54.8082 54.056 53.4516 53.459 52.1427C52.8473 50.8171 52.1286 49.5435 51.3101 48.3347C49.6436 45.7958 47.4323 43.6601 44.837 42.0829C43.3815 41.1917 41.7312 40.6675 40.0283 40.5554C39.1127 40.5025 38.1962 40.6406 37.3369 40.961C37.0243 41.0794 36.7214 41.222 36.431 41.3876L36.2888 41.1401L47.3493 34.746C47.652 34.5686 47.9692 34.4171 48.2974 34.2931C49.1884 33.9583 50.138 33.8078 51.0888 33.8506C52.8392 33.97 54.5345 34.5122 56.0292 35.4307C58.6635 37.0401 60.9069 39.2152 62.5971 41.7984C63.4246 43.0184 64.1503 44.3044 64.7671 45.6433C65.3741 46.9557 65.8727 48.3156 66.2576 49.7094C66.8538 51.8217 67.1063 54.0162 67.0055 56.2088C66.7896 59.9378 65.3622 62.7503 62.9868 64.1092L51.979 70.4874L51.9473 70.519ZM39.6912 40.2394H40.0441C41.7956 40.3528 43.4922 40.8955 44.9845 41.8195C47.6202 43.4293 49.8639 45.6064 51.5523 48.1925C52.3768 49.4143 53.1025 50.7 53.7223 52.0374C54.3286 53.3537 54.8271 54.717 55.2129 56.114C55.8127 58.2238 56.0653 60.4171 55.9608 62.6081C55.8027 65.4417 54.939 67.7434 53.4958 69.2866L62.8341 63.8722C65.12 62.5554 66.521 59.8272 66.7053 56.1982C66.8075 54.0355 66.5567 51.8705 65.9627 49.7884C65.5863 48.41 65.0947 47.0657 64.4932 45.7697C63.8834 44.4448 63.1646 43.1729 62.3443 41.967C60.6775 39.4198 58.4668 37.2739 55.8712 35.6835C54.423 34.795 52.7832 34.2659 51.0888 34.1403C50.1751 34.0974 49.2619 34.2371 48.4027 34.5511C48.0901 34.6695 47.7872 34.8122 47.4968 34.9778L38.09 40.4185C38.6151 40.2972 39.1524 40.2371 39.6912 40.2394Z" fill="#152242"/>
<path d="M44.9112 41.9565C51.379 45.7013 56.2615 54.9447 55.8191 62.5976C55.3766 70.2504 49.7884 73.4317 43.3206 69.6816C36.8528 65.9316 31.9862 56.6934 32.4181 49.0352C32.85 41.3771 38.4487 38.2117 44.9112 41.9565Z" fill="#D11D04"/>
<path d="M48.54 71.4038C46.6765 71.3458 44.8607 70.8011 43.273 69.8237C36.7578 66.0474 31.8385 56.7249 32.2757 49.0299C32.4969 45.2061 33.9822 42.362 36.4892 41.0294C38.8751 39.7443 41.8984 40.0287 45.0111 41.83C51.5053 45.5958 56.4351 54.9183 55.9874 62.608C55.7715 66.4371 54.2809 69.276 51.8055 70.6138C50.8004 71.1466 49.6775 71.4182 48.54 71.4038ZM39.7021 40.5238C38.6208 40.5133 37.5543 40.7741 36.5998 41.2822C34.2139 42.5674 32.7813 45.3272 32.5654 49.0457C32.1282 56.6406 36.9896 65.8367 43.3942 69.5551C46.4174 71.309 49.3458 71.5934 51.6422 70.3557C54.0281 69.0706 55.4607 66.316 55.6714 62.5922C56.1086 54.9973 51.2524 45.796 44.8373 42.0775C43.2916 41.1179 41.5205 40.582 39.7021 40.5238Z" fill="#152242"/>
<path d="M44.9124 54.7761C45.1381 54.6681 45.3244 54.4922 45.4452 54.2732C45.5661 54.0541 45.6155 53.8027 45.5866 53.5542C45.5866 52.306 44.5701 50.7048 43.3218 49.9832C42.0735 49.2617 41.0518 49.6883 41.0518 50.9418C41.1062 51.7836 41.4168 52.5886 41.9419 53.2487C41.9687 53.2846 41.988 53.3254 41.9989 53.3688C42.0097 53.4122 42.0118 53.4573 42.0051 53.5015L41.1202 58.8053C41.1089 58.8743 41.119 58.9451 41.1492 59.0082C41.1793 59.0713 41.228 59.1237 41.2888 59.1582L44.9335 61.3229C44.9899 61.3579 45.0552 61.3759 45.1215 61.375C45.1879 61.374 45.2526 61.3541 45.308 61.3175C45.3634 61.281 45.4071 61.2293 45.4341 61.1687C45.4611 61.108 45.4701 61.0409 45.4602 60.9753L44.6596 55.1554C44.6522 55.0728 44.6732 54.9902 44.7192 54.9212C44.7652 54.8522 44.8333 54.801 44.9124 54.7761Z" fill="#152242"/>
<path d="M45.1061 61.2386C45.0703 61.2387 45.0353 61.2276 45.006 61.207L41.3613 59.0476C41.3257 59.0266 41.2974 58.995 41.2804 58.9573C41.2635 58.9196 41.2586 58.8775 41.2665 58.8369L42.1355 53.5384C42.1462 53.4741 42.1437 53.4083 42.1284 53.3449C42.113 53.2816 42.085 53.222 42.046 53.1697C41.5368 52.5375 41.2368 51.7626 41.1875 50.9523C41.1875 50.2202 41.5562 49.7883 42.1777 49.7883C42.4727 49.7974 42.7622 49.8711 43.0257 50.0043C42.8288 50.1455 42.6717 50.335 42.5693 50.5545C42.4669 50.7741 42.4227 51.0163 42.441 51.2578C42.49 52.1325 42.8103 52.9701 43.3575 53.6543C43.3873 53.6953 43.4005 53.7461 43.3943 53.7965L42.5095 59.1003C42.4934 59.2016 42.5073 59.3054 42.5494 59.399C42.5915 59.4926 42.66 59.5718 42.7465 59.627L45.2957 61.0964C45.2807 61.1337 45.2554 61.1658 45.2227 61.1892C45.1901 61.2125 45.1514 61.226 45.1114 61.2281L45.1061 61.2386Z" fill="white"/>
<path d="M42.1894 49.9306C42.3826 49.9361 42.5733 49.9753 42.753 50.0464C42.5999 50.2073 42.4812 50.3977 42.4043 50.606C42.3273 50.8143 42.2936 51.0361 42.3053 51.2578C42.3568 52.163 42.688 53.0298 43.2533 53.7385C43.257 53.7506 43.257 53.7634 43.2533 53.7754L42.3685 59.0739C42.3405 59.238 42.3784 59.4064 42.4738 59.5427L41.4204 58.9212C41.4143 58.9118 41.4111 58.9008 41.4111 58.8896C41.4111 58.8784 41.4143 58.8674 41.4204 58.858L42.3 53.5595C42.3156 53.4768 42.3134 53.3917 42.2934 53.3099C42.2734 53.2282 42.2362 53.1516 42.1841 53.0854C41.6985 52.4748 41.41 51.7308 41.3572 50.9523C41.3572 50.3045 41.6627 49.9306 42.1999 49.9306H42.1894ZM42.1894 49.6409C41.51 49.6409 41.0518 50.1096 41.0518 50.9523C41.1062 51.7941 41.4168 52.5991 41.9419 53.2593C41.9687 53.2951 41.988 53.3359 41.9989 53.3793C42.0097 53.4227 42.0118 53.4678 42.0051 53.5121L41.1202 58.8159C41.1089 58.8849 41.119 58.9557 41.1492 59.0187C41.1793 59.0818 41.228 59.1342 41.2888 59.1688L44.9335 61.3335C44.9864 61.3638 45.0463 61.3801 45.1073 61.3809C45.1986 61.3795 45.2856 61.3422 45.3497 61.2772C45.4138 61.2122 45.4497 61.1245 45.4496 61.0332L42.8162 59.4795C42.756 59.4433 42.7081 59.3897 42.679 59.3258C42.6498 59.2618 42.6407 59.1906 42.6529 59.1214L43.5325 53.8228C43.5464 53.7318 43.5237 53.639 43.4693 53.5647C42.9446 52.9048 42.6357 52.0994 42.5844 51.2578C42.5592 50.9977 42.621 50.7366 42.7602 50.5155C42.8994 50.2943 43.108 50.1257 43.3534 50.0359H43.3218C42.9807 49.8233 42.5908 49.7018 42.1894 49.683V49.6409Z" fill="#152242"/>
<defs>
<linearGradient id="paint0_linear_154_69" x1="57.647" y1="108.004" x2="87.6369" y2="56.056" gradientUnits="userSpaceOnUse">
<stop stop-color="#CBCDD1"/>
<stop offset="1" stop-color="#AFAFB5" stop-opacity="0"/>
</linearGradient>
<linearGradient id="paint1_linear_154_69" x1="96.2225" y1="54.9868" x2="117.111" y2="18.803" gradientUnits="userSpaceOnUse">
<stop stop-color="#CBCDD1"/>
<stop offset="1" stop-color="#AFAFB5" stop-opacity="0"/>
</linearGradient>
</defs>
</svg>
