<svg width="249" height="125" viewBox="0 0 249 125" fill="none" xmlns="http://www.w3.org/2000/svg">
<mask id="mask0_154_618" style="mask-type:alpha" maskUnits="userSpaceOnUse" x="0" y="0" width="249" height="125">
<rect width="249" height="125" rx="20" fill="#F3F3F3"/>
</mask>
<g mask="url(#mask0_154_618)">
<path style="mix-blend-mode:multiply" d="M142.375 31.8004C135.706 36.9392 129.667 33.1929 123.428 34.6516C114.825 36.1822 106.989 40.9011 98.701 44.0065C88.7549 48.0457 69.6805 49.6537 69.6805 57.5995C69.6805 69.6343 97.3086 59.7379 105.409 57.3453C116.206 54.157 80.1405 85.9127 67.2824 95.1626C58.878 100.898 60.6517 110.551 73.5706 104.816C61.8839 118.354 75.825 120.381 82.7486 114.027C84.1245 124.47 103.193 111.148 108.448 106.175C114.239 116.508 122.688 103.799 135.634 97.6049C152.388 89.5928 154.09 85.8464 156.516 81.4922C161.732 72.1319 168.119 60.086 172.142 57.0525C177.668 52.8972 226 24.6337 226 24.6337L183.9 -4C183.9 -4 145.205 29.6178 142.375 31.8004Z" fill="url(#paint0_linear_154_618)" fill-opacity="0.53"/>
<path d="M171.783 10.991C167.561 9.18416 163.931 9.53227 161.499 11.5436C161.201 11.7922 145.204 27.2916 142.375 29.4742C135.706 34.613 129.666 30.8667 123.428 32.3254C114.825 33.856 106.989 38.5473 98.7008 41.6803C88.7547 45.7195 69.6803 47.3219 69.6803 55.2733C69.6803 67.3025 97.3084 57.4117 105.409 55.0191C116.206 51.8308 80.1403 83.581 67.2822 92.8308C58.8943 98.5664 60.6625 108.225 73.6145 102.49C61.8837 116.027 75.8248 118.05 82.7484 111.701C84.1242 122.144 103.193 108.816 108.448 103.849C114.239 114.176 122.687 101.473 135.634 95.2787C152.388 87.2666 154.09 83.5202 156.515 79.166C161.731 69.8001 168.119 57.7598 172.142 54.7262C177.667 50.571 183.552 46.0289 184.989 44.9183C187.58 43.0285 188.962 39.3927 188.497 34.5136C187.597 25.0703 180.115 14.5274 171.783 10.991Z" fill="white"/>
<path d="M87.064 115.746C86.4372 115.758 85.813 115.663 85.2185 115.464C83.7984 114.961 82.9253 113.806 82.6214 112.01C78.7148 115.431 72.5427 116.398 70.0065 113.939C67.8238 111.817 68.9013 107.811 73.029 102.887C67.7852 105.098 63.862 104.893 62.4585 102.374C61.1986 100.108 62.4585 95.9528 67.1939 92.6982C79.3779 83.9235 108.636 58.1023 107.188 55.1682C107.045 54.8754 106.42 54.8699 105.437 55.1682C104.658 55.3948 103.696 55.7208 102.597 56.0413C93.7555 58.8041 77.35 63.9153 71.5536 59.655C70.8784 59.1495 70.3385 58.485 69.9818 57.7206C69.6252 56.9561 69.4628 56.1155 69.5092 55.2732C69.5092 49.5818 78.9027 47.1174 88.0476 44.7304C91.9652 43.7081 95.6674 42.7356 98.6236 41.5366C101.453 40.4812 104.254 39.2269 106.962 37.9946C112.239 35.6242 117.698 33.1708 123.4 32.1596C125.727 31.607 128.059 31.7894 130.313 31.9607C134.181 32.2425 138.121 32.5132 142.281 29.336C144.492 27.6231 154.907 17.6328 159.35 13.367L161.4 11.4109C163.992 9.26699 167.705 9.06255 171.843 10.8307C180.209 14.3837 187.746 24.9929 188.652 34.4804C189.111 39.2711 187.84 43.0119 185.077 45.0287C183.939 45.9073 177.949 50.5544 172.236 54.8312C168.661 57.5222 163.19 67.413 158.361 76.1435C157.779 77.1933 157.21 78.2192 156.654 79.2212L156.438 79.6025C154.062 83.8959 152.018 87.6036 135.706 95.4002C131.634 97.3508 127.97 99.9588 124.765 102.263C119.875 105.761 116.013 108.524 112.675 107.789C111.018 107.424 109.636 106.214 108.409 104.092C104.381 107.86 93.3356 115.746 87.064 115.746ZM82.8646 111.386L82.9032 111.684C83.1464 113.513 83.9641 114.685 85.3345 115.171C90.943 117.155 104.066 107.8 108.343 103.738L108.487 103.6L108.581 103.772C109.785 105.921 111.145 107.137 112.742 107.496C115.941 108.209 119.759 105.479 124.583 102.025C127.815 99.7157 131.473 97.0966 135.568 95.1405C151.785 87.4047 153.802 83.7191 156.173 79.4699L156.383 79.0886C156.943 78.0866 157.512 77.0607 158.09 76.0108C162.931 67.2528 168.423 57.3288 172.048 54.5991C177.761 50.3057 183.751 45.6808 184.895 44.7967C187.564 42.8461 188.791 39.1992 188.343 34.5246C187.448 25.131 179.994 14.6324 171.727 11.1291C167.694 9.41066 164.097 9.59853 161.599 11.6817L159.555 13.6322C155.134 17.898 144.702 27.8938 142.469 29.6123C138.215 32.8945 134.181 32.5906 130.313 32.2977C128.103 32.132 125.771 31.9607 123.489 32.4911C117.809 33.5023 112.371 35.9446 107.111 38.3096C104.398 39.5252 101.585 40.7851 98.7783 41.8405C95.8055 43.0506 92.0923 44.0176 88.1636 45.0453C79.1403 47.3882 69.8352 49.8195 69.8352 55.2732C69.791 56.0666 69.9427 56.8587 70.2771 57.5795C70.6115 58.3003 71.1183 58.9278 71.7526 59.4064C77.4218 63.5727 94.3744 58.3013 102.525 55.7429C103.63 55.4003 104.586 55.1019 105.365 54.8699C106.558 54.5162 107.255 54.5715 107.481 55.0356C108.398 56.9088 99.7453 65.3796 92.3133 72.165C83.7542 79.9893 73.2666 88.7197 67.3873 92.9579C62.7734 96.1075 61.5523 100.086 62.7403 102.224C63.8012 104.125 67.1608 105.158 73.5263 102.351L74.1672 102.092L73.7141 102.611C69.3765 107.617 68.0891 111.651 70.2385 113.696C72.7195 116.099 78.864 115.049 82.6435 111.574L82.8646 111.386Z" fill="#152242"/>
<path d="M106.58 52.3612C106.332 52.9967 105.928 53.9692 105.409 55.0467C106.493 54.7004 107.601 54.4363 108.724 54.2565C108.724 54.0244 108.724 53.7813 108.724 53.5216C108.733 50.1167 108.452 46.7173 107.884 43.36C107.934 46.5317 107.741 49.3663 106.58 52.3612Z" fill="#152242"/>
<path d="M86.9864 56.4613C87.4451 52.8033 84.7044 48.8691 82.3284 47.3219L82.03 47.4435C83.8368 49.3111 84.3949 54.135 84.9088 57.3012C82.1736 58.1245 69.404 61.4509 72.1999 50.8251C70.6306 52.0573 69.6913 53.5106 69.6913 55.2788C69.6913 66.8826 95.3909 58.0858 104.503 55.2788C97.4962 52.9138 90.125 55.2235 86.9864 56.4613Z" fill="#152242"/>
<path d="M115.609 94.0078C116.198 93.841 116.796 93.7063 117.399 93.6044H117.261C115.968 93.5879 114.802 94.2509 115.609 94.0078Z" fill="#152242"/>
<path d="M117.388 93.6044C118.544 93.7288 119.689 93.9375 120.814 94.2288C123.411 94.6929 127.246 94.5603 129.467 95.9804C127.434 94.8089 126.097 93.6265 123.654 93.3778C121.565 93.1688 119.457 93.245 117.388 93.6044Z" fill="#152242"/>
<path d="M73.9133 88.0898L73.2612 88.5595C74.6384 89.2684 75.8967 90.1875 76.991 91.2836C78.0961 92.3888 78.389 93.6541 79.2013 94.599C79.4554 91.8528 76.886 88.775 73.9133 88.0898Z" fill="#152242"/>
<path d="M89.7942 76.1213L88.3575 77.2596C90.6894 77.9393 92.3857 81.4646 94.292 82.2327C94.6733 80.144 92.2365 77.0717 89.7942 76.1213Z" fill="#152242"/>
<path d="M188.497 34.5079C188.376 33.3173 188.167 32.1371 187.873 30.9771C187.701 34.4416 186.342 36.9392 184.375 38.5361C180.59 41.6139 175.65 43.5091 172.147 44.6143C167.373 41.1055 161.477 38.8566 160.024 38.1051C162.234 40.7242 166.19 44.6529 166.549 49.0845C164.505 54.5272 160.278 65.3463 156.603 71.9771C154.238 76.2318 148.608 88.1561 132.246 95.9859C119.924 101.882 108.144 109.645 112.658 98.0966C113.327 97.3452 114.04 96.5937 114.819 95.8256C116.99 93.6596 119.394 91.7201 121.632 89.6259C124.168 87.2499 128.461 84.5589 130.158 81.5861C132.313 81.133 133.794 81.3982 135.302 81.4701C137.435 81.5695 140.977 82.4536 143.038 83.1278C140.336 79.8455 133.153 79.5306 130.185 81.564C130.202 81.5395 130.217 81.5136 130.23 81.4867C126.03 85.6861 115.57 91.1178 110.127 99.7212C102.392 106.159 86.0137 117.746 84.8422 108.943C86.4131 107.162 88.0865 105.474 89.854 103.887C91.6958 102.193 93.5616 100.504 95.4514 98.8205C96.435 99.3123 97.1091 100.136 98.4794 100.821C99.9769 101.556 102.347 101.064 103.353 102.506C102.745 101.092 98.38 98.5995 96.0979 98.2403C98.8386 95.7832 101.601 93.3391 104.386 90.9078C105.491 89.9243 106.641 88.9628 107.779 88.0069C110.166 88.5594 115.565 89.9685 116.819 89.8856C114.629 88.1572 111.991 87.0912 109.216 86.8133C113.122 83.5919 117.101 80.481 121.002 77.2596C123.03 78.3978 127.417 79.0333 131.909 78.9172C130.462 78.1557 128.962 77.4965 127.423 76.9446C125.422 76.3423 123.621 76.5744 121.726 76.6352L122.731 75.7953C118.156 76.4197 113.542 80.8346 110.022 83.7135C103.104 89.3828 96.8991 95.9582 90.5281 102.147C87.9031 104.605 85.4857 107.275 83.3006 110.131C76.2057 114.961 64.613 113.353 75.2332 101.064C76.2831 100.202 77.3274 99.4062 78.4049 98.6271C80.1841 100.047 86.9972 101.036 88.6881 100.782C86.4502 99.4117 82.422 97.6491 79.4769 97.8425L80.6704 96.9639C85.6766 93.2507 90.191 88.8689 95.0701 84.9623C97.8937 86.2939 101.248 85.8187 104.58 87.1725C102.541 84.8904 98.0208 84.8794 95.1475 84.8849C95.479 84.6197 95.805 84.3323 96.1421 84.0947C98.8552 82.0005 101.706 80.1053 104.326 77.895C105.591 76.8286 107.956 75.2317 108.956 73.6734C111.956 73.1209 113.929 73.364 118.93 74.4139C116.791 73.353 111.42 72.292 109.1 73.4303C109.201 73.2556 109.282 73.0703 109.343 72.8778C109.088 72.9158 108.837 72.9731 108.591 73.049C108.735 72.4357 108.243 71.5682 107.967 71.104C107.151 69.8643 106.074 68.8177 104.812 68.0373C103.886 67.4755 102.81 67.2112 101.729 67.2803C101.372 67.2826 101.022 67.3819 100.717 67.5676C101.822 67.6947 102.773 68.4241 103.701 68.9711C104.418 69.3707 105.078 69.8651 105.663 70.441C106.138 70.9106 106.768 71.1869 107.138 71.734C107.457 72.2352 107.731 72.7641 107.956 73.3143C105.712 74.3144 103.734 76.823 102.082 78.4641C96.4405 84.0395 89.4119 88.4655 83.3945 93.643C80.0792 96.4942 75.6918 98.9421 72.382 102.07C66.1491 103.655 63.5686 99.7985 64.3754 95.4388C59.6068 100.987 62.4746 107.418 73.6142 102.49C62.2922 115.585 74.9901 117.906 82.0794 112.292C82.0794 112.331 82.1181 112.331 82.1623 112.292C82.3679 112.119 82.5634 111.935 82.748 111.739C84.1239 122.183 103.193 108.861 108.448 103.887C114.238 114.22 122.687 101.517 135.639 95.3173C152.387 87.3051 154.089 83.5588 156.52 79.1991C161.731 69.8387 168.124 57.7928 172.136 54.7648C177.661 50.6095 183.557 46.0675 184.988 44.9568C187.58 43.0284 188.961 39.3981 188.497 34.5079Z" fill="#152242"/>
<path d="M165.688 22.9153L162.373 25.6007L159.135 28.3635C158.079 29.3084 156.996 30.2256 155.963 31.1981C153.869 33.1155 151.813 35.0661 149.885 37.1713C152.299 35.6407 154.604 33.9775 156.864 32.2591C158.002 31.4136 159.101 30.5185 160.223 29.651L163.539 26.9655L166.771 24.2027C167.832 23.2634 168.909 22.3406 169.948 21.3681C172.042 19.4562 174.098 17.5002 176.026 15.3949C173.617 16.931 171.313 18.5942 169.053 20.3127C167.904 21.1526 166.804 22.0422 165.688 22.9153Z" fill="#152242"/>
<path d="M162.245 30.1317C161.14 31.071 160.035 32.0104 158.93 32.9829L157.305 34.4472C156.753 34.95 156.233 35.4418 155.714 35.9612C156.316 35.5412 156.896 35.0992 157.488 34.6682L159.223 33.331C160.378 32.4414 161.499 31.5131 162.627 30.5682C163.754 29.6233 164.837 28.6895 165.942 27.717C167.047 26.7445 168.102 25.783 169.152 24.7332C167.953 25.573 166.798 26.4627 165.649 27.3633C164.5 28.264 163.367 29.2034 162.245 30.1317Z" fill="#152242"/>
<path d="M142.459 57.3342L138.757 59.4726C137.058 60.3753 135.154 60.8191 133.231 60.7601C132.301 60.7499 131.374 60.6388 130.468 60.4285C130.369 60.4285 130.286 60.3678 130.192 60.3456C129.849 60.2517 129.501 60.1523 129.181 60.0307C128.766 59.8704 101.415 44.0064 101.415 44.0064C99.9448 43.1555 99.2043 42.0338 99.2043 40.9176L99.2872 73.4635C99.2872 74.5686 100.028 75.6737 101.497 76.5578C101.497 76.5578 128.86 92.361 129.253 92.5821C130.662 93.317 132.308 93.2949 133.237 93.3114C135.177 93.3776 137.102 92.9337 138.817 92.024L142.52 89.8856C144.023 89.018 144.774 87.8798 144.769 86.7415L144.686 54.1956C144.713 55.3339 143.962 56.4667 142.459 57.3342Z" fill="#D11D04"/>
<path d="M133.291 93.3888H133.031C131.702 93.4479 130.378 93.1963 129.163 92.6539C128.777 92.4549 102.524 77.2927 101.403 76.6296C99.9605 75.7897 99.1593 74.668 99.1593 73.4689L99.0764 40.9231H99.2367C99.2367 42.0558 100.01 43.1333 101.403 43.9401C101.673 44.0948 128.716 59.7654 129.158 59.9643C129.489 60.0859 129.832 60.1854 130.163 60.2738L130.291 60.3125L130.434 60.3567C131.34 60.5675 132.267 60.6769 133.197 60.6827H133.335C135.198 60.723 137.04 60.2834 138.684 59.4063L142.386 57.2678C143.817 56.4445 144.596 55.3505 144.596 54.1956H144.757L144.84 86.7415C144.84 87.9571 144.027 89.1009 142.552 89.9518L138.844 92.0902C137.179 92.9812 135.312 93.4266 133.424 93.3832H133.291V93.3888ZM133.208 93.223C135.144 93.2993 137.066 92.8608 138.778 91.9521L142.48 89.8137C143.911 88.9904 144.69 87.9018 144.69 86.7415L144.63 55.1239C144.219 56.119 143.464 56.933 142.502 57.417L138.817 59.5444C137.107 60.4556 135.188 60.9015 133.252 60.8374C132.307 60.8301 131.366 60.719 130.445 60.5059L130.291 60.4561L130.169 60.4174C129.824 60.3319 129.485 60.2268 129.152 60.1025C128.738 59.9422 102.491 44.7358 101.37 44.0782C100.429 43.6099 99.6839 42.8255 99.2643 41.8624L99.3472 73.4966C99.3472 74.6348 100.121 75.7068 101.513 76.5191C101.784 76.6793 128.882 92.3278 129.263 92.5433C130.454 93.0666 131.748 93.3122 133.048 93.2617L133.208 93.223Z" fill="#152242"/>
<path d="M142.497 51.0958L115.903 35.6241C112.941 33.9056 108.122 33.9056 105.139 35.6241L101.431 37.7625C98.4471 39.4865 98.4306 42.2769 101.392 43.9954L127.987 59.4671C130.949 61.1911 135.773 61.1911 138.756 59.4671L142.459 57.3287C145.448 55.6102 145.448 52.8198 142.497 51.0958Z" fill="#D11D04"/>
<path d="M133.363 60.843C131.476 60.8812 129.612 60.434 127.948 59.5445L101.348 44.0727C99.8998 43.2273 99.0986 42.1001 99.1042 40.901C99.1097 39.702 99.9164 38.5527 101.392 37.6962L105.11 35.5744C108.116 33.8448 112.979 33.8448 115.957 35.5744L142.552 51.0461C144.005 51.8915 144.806 53.0187 144.806 54.2233C144.806 55.4279 143.989 56.5717 142.519 57.4226L138.817 59.5445C137.141 60.4389 135.262 60.8861 133.363 60.843ZM110.531 34.4306C108.666 34.3967 106.824 34.8378 105.177 35.7125L101.469 37.8509C100.049 38.6742 99.2589 39.7628 99.2589 40.9176C99.2589 42.0725 100.027 43.1279 101.425 43.9512L128.02 59.4229C130.959 61.1303 135.756 61.1303 138.712 59.4229L142.414 57.2845C143.839 56.4612 144.624 55.3726 144.624 54.2233C144.624 53.074 143.856 52.013 142.453 51.1842L115.852 35.7125C114.218 34.8345 112.386 34.393 110.531 34.4306Z" fill="#152242"/>
<path d="M109.857 37.0774C107.592 36.7293 105.254 37.5029 104.647 38.8124C104.039 40.122 105.387 41.4702 107.658 41.8239C109.929 42.1775 112.255 41.3984 112.863 40.0888C113.471 38.7793 112.128 37.4421 109.857 37.0774Z" fill="#152242"/>
<path d="M135.457 51.8087C133.186 51.4606 130.854 52.2397 130.246 53.5492C129.638 54.8588 130.986 56.2015 133.252 56.5552C135.517 56.9088 137.855 56.1297 138.463 54.8201C139.07 53.5106 137.711 52.1568 135.457 51.8087Z" fill="#152242"/>
<path d="M123.146 15.4722C118.372 12.7094 113.625 12.2895 110.128 14.3063C107.039 16.0966 105.337 19.4562 105.337 23.7772V38.9837C105.337 41.8294 112.056 41.9288 112.056 38.9837V23.7772C112.056 22.7218 112.239 20.8486 113.487 20.1248C114.736 19.4009 117.223 19.8098 119.787 21.2907C125.798 24.7608 130.876 32.6513 130.876 38.525V53.5492C130.876 56.533 137.596 56.8314 137.596 53.5492V38.5472C137.596 30.2587 131.252 20.1469 123.146 15.4722Z" fill="white"/>
<path d="M134.357 56.0357C132.561 56.0357 130.744 55.1792 130.744 53.5492V38.5472C130.744 32.7176 125.693 24.8768 119.692 21.4178C117.167 19.959 114.808 19.517 113.526 20.2574C112.338 20.9426 112.161 22.7605 112.161 23.7883V38.9837C112.161 40.5695 110.371 41.2879 108.713 41.2879C106.95 41.2879 105.171 40.4977 105.171 38.9837V23.7772C105.171 19.4064 106.901 16.0027 110.034 14.1903C113.598 12.1458 118.372 12.5768 123.212 15.3396C131.357 20.0529 137.711 30.2587 137.711 38.5472V53.5713C137.715 53.9521 137.618 54.3272 137.431 54.6589C137.244 54.9906 136.973 55.2672 136.645 55.461C135.949 55.8586 135.158 56.0574 134.357 56.0357ZM115.056 19.6275C116.753 19.7319 118.395 20.2642 119.83 21.1746C125.881 24.6668 130.992 32.6126 130.992 38.5251V53.5492C130.992 54.9858 132.716 55.7594 134.335 55.7594C135.093 55.7802 135.841 55.5888 136.496 55.2069C136.785 55.0375 137.024 54.7952 137.19 54.5043C137.356 54.2134 137.442 53.884 137.441 53.5492V38.5472C137.441 30.3416 131.125 20.2684 123.074 15.6103C118.339 12.8475 113.642 12.4552 110.188 14.4444C107.144 16.2071 105.464 19.528 105.464 23.7993V38.9837C105.464 40.3209 107.122 41.0171 108.735 41.0171C110.266 41.0171 111.912 40.3817 111.912 38.9837V23.7772C111.912 22.6721 112.111 20.7657 113.415 20.0087C113.92 19.7424 114.486 19.6111 115.056 19.6275Z" fill="#152242"/>
<path d="M118.859 65.6227C119.671 65.2415 120.174 64.3795 120.174 63.1086C120.174 60.4839 118.047 57.1299 115.422 55.6103C112.797 54.0908 110.67 54.997 110.67 57.6216C110.772 59.3426 111.395 60.992 112.455 62.3516C112.617 62.5748 112.684 62.8526 112.643 63.1252L110.847 73.9111C110.812 74.1183 110.841 74.3312 110.93 74.5216C111.019 74.712 111.163 74.871 111.344 74.9776L118.251 79.0776C118.419 79.1785 118.612 79.2298 118.808 79.2256C119.004 79.2213 119.195 79.1618 119.359 79.0537C119.522 78.9456 119.652 78.7935 119.733 78.6149C119.813 78.4363 119.842 78.2385 119.815 78.0443L118.246 66.6837C118.22 66.4644 118.266 66.2429 118.377 66.0518C118.487 65.8607 118.656 65.7103 118.859 65.6227Z" fill="white"/>
<path d="M118.786 79.3372C118.574 79.3373 118.366 79.28 118.184 79.1715L111.272 75.0715C111.07 74.9483 110.91 74.7679 110.812 74.5534C110.713 74.3388 110.681 74.0998 110.719 73.8669L112.515 63.0864C112.533 62.9696 112.528 62.8502 112.499 62.7354C112.471 62.6206 112.42 62.5127 112.349 62.4178C111.272 61.0338 110.64 59.3557 110.537 57.605C110.537 56.4115 110.973 55.5053 111.763 55.0467C112.714 54.4941 114.073 54.6599 115.493 55.4777C118.151 57.0138 120.312 60.4507 120.312 63.0919C120.312 64.3684 119.82 65.3022 118.925 65.7277C118.745 65.7991 118.593 65.9274 118.494 66.0931C118.394 66.2588 118.351 66.4526 118.372 66.6449L119.941 78C119.974 78.2199 119.943 78.4446 119.852 78.6473C119.761 78.8501 119.614 79.0224 119.427 79.1438C119.237 79.2681 119.014 79.3353 118.786 79.3372ZM113.045 55.0246C112.644 55.0166 112.248 55.1137 111.896 55.3064C111.189 55.7153 110.791 56.5386 110.791 57.6326C110.893 59.3254 111.506 60.9475 112.548 62.2852C112.64 62.4091 112.707 62.5501 112.744 62.7C112.781 62.8499 112.788 63.0057 112.764 63.1583L110.979 73.9111C110.95 74.0911 110.976 74.2756 111.053 74.441C111.13 74.6063 111.254 74.745 111.41 74.8394L118.322 78.9394C118.469 79.026 118.637 79.0696 118.807 79.0652C118.977 79.0609 119.142 79.0087 119.284 78.9147C119.426 78.8208 119.538 78.6888 119.609 78.5338C119.679 78.3789 119.704 78.2073 119.682 78.0387L118.112 66.6781C118.085 66.4314 118.137 66.1824 118.261 65.9676C118.385 65.7528 118.575 65.5835 118.803 65.4845C119.599 65.1088 120.035 64.2579 120.035 63.0919C120.035 60.5115 117.936 57.2016 115.355 55.7153C114.66 55.2806 113.864 55.0331 113.045 54.9969V55.0246Z" fill="#152242"/>
<path d="M83.8043 73.3585L81.4117 74.9167L82.6661 75.5687L85.0642 74.005C85.1136 73.9687 85.1707 73.9444 85.2311 73.9338C85.2915 73.9233 85.3535 73.9268 85.4123 73.9442L84.158 73.3088C84.0992 73.2889 84.0367 73.2831 83.9753 73.2917C83.9139 73.3004 83.8553 73.3232 83.8043 73.3585Z" fill="#D8D9DB"/>
<path d="M109.564 60.7436L109.387 60.6552C109.346 60.6323 109.301 60.6173 109.255 60.6109C109.207 60.6053 109.159 60.6053 109.111 60.6109L105.105 60.8375C104.95 60.8537 104.802 60.9088 104.674 60.9977C104.515 61.1059 104.373 61.2383 104.254 61.3901C103.768 62.0145 104 65.1585 103.414 65.9045C103.252 66.1332 103.019 66.3022 102.751 66.3852C102.049 66.551 99.027 65.363 98.6457 65.5122C98.2644 65.6614 96.6454 67.5014 96.2973 67.5235C96.0873 67.5235 95.7447 67.5677 95.5182 67.5953C95.3411 67.6319 95.1827 67.7297 95.0706 67.8716C94.5457 68.4573 93.75 70.2531 93.2472 70.8002C93.0414 71.0604 92.7623 71.2529 92.446 71.3527C91.8934 71.4909 90.8325 70.8002 90.5838 70.9549C90.0313 71.2588 88.1028 74.0161 87.0916 74.7068C86.8485 74.8726 85.5997 74.0548 85.434 73.9774L87.6995 75.4748C87.8129 75.5119 87.934 75.5192 88.0511 75.496C88.1682 75.4727 88.2773 75.4198 88.3681 75.3422C89.3792 74.646 91.3906 72.7341 91.9321 72.4302C92.5206 72.243 93.1204 72.0935 93.7279 71.9827C94.0408 71.8903 94.3195 71.7077 94.5291 71.4577C95.0264 70.9052 95.8276 69.1093 96.347 68.5291C96.4591 68.3872 96.6176 68.2894 96.7946 68.2529C97.0322 68.2529 97.3472 68.1921 97.5737 68.181C97.9218 68.181 99.5629 66.3134 99.9276 66.1697C100.292 66.026 103.331 67.2085 104.028 67.0428C104.295 66.959 104.528 66.7902 104.691 66.562C105.282 65.8161 105.05 62.6941 105.536 62.0476C105.653 61.8944 105.793 61.7601 105.951 61.6498C106.08 61.5615 106.231 61.5082 106.387 61.495L110.388 61.2685C110.483 61.2582 110.578 61.2755 110.664 61.3182L109.901 60.9314L109.564 60.7436Z" fill="#D8D9DB"/>
<path d="M73.0125 85.0508L71.7527 84.4098C72.0369 84.562 72.2524 84.8169 72.355 85.1226C72.4428 85.3525 72.4932 85.595 72.5042 85.8409C72.5222 86.334 72.4511 86.8263 72.2942 87.2942C71.9853 88.3293 71.3446 89.2341 70.4707 89.8691C70.2514 90.0459 69.9891 90.1616 69.7106 90.2043C69.432 90.247 69.1472 90.2152 68.8849 90.1122L70.1447 90.7421C70.4059 90.8464 70.6901 90.8788 70.968 90.8361C71.2459 90.7933 71.5073 90.6769 71.7251 90.499C72.6014 89.8677 73.2445 88.9644 73.554 87.9296C73.7092 87.4596 73.7785 86.9654 73.7585 86.4708C73.746 86.2257 73.6976 85.9836 73.6148 85.7525C73.5056 85.4534 73.2916 85.204 73.0125 85.0508Z" fill="#152242"/>
<path d="M73.6151 74.5355C70.4102 76.6739 64.1055 84.2108 66.2439 93.1071C66.4095 93.7129 66.7069 94.2746 67.1148 94.7522C67.5226 95.2298 68.0309 95.6115 68.6033 95.8699L69.8576 96.4998C68.7533 95.9064 67.9114 94.9206 67.4982 93.737C65.6637 89.4325 69.0343 78.63 74.8915 75.1599C77.3062 73.7288 79.4335 73.3751 81.0857 74.204L79.8259 73.574C78.1792 72.7507 75.9634 72.9718 73.6151 74.5355Z" fill="#D8D9DB"/>
<path d="M110.366 61.2353L106.365 61.4619C106.209 61.475 106.058 61.5283 105.928 61.6166C105.771 61.727 105.631 61.8612 105.514 62.0144C105.028 62.6333 105.26 65.7829 104.669 66.5288C104.506 66.757 104.273 66.9258 104.006 67.0096C103.309 67.1753 100.281 65.9873 99.9056 66.1365C99.5298 66.2857 97.8998 68.1257 97.5517 68.1478C97.3472 68.1478 96.9991 68.192 96.7725 68.2197C96.5955 68.2562 96.437 68.3541 96.325 68.496C95.8056 69.0761 95.0043 70.8775 94.507 71.4245C94.2974 71.6745 94.0187 71.8571 93.7058 71.9495C93.1533 72.0876 92.0868 71.3969 91.8382 71.5516C91.2856 71.8555 89.3572 74.6128 88.346 75.309C88.2553 75.3866 88.1461 75.4395 88.029 75.4628C87.9119 75.486 87.7909 75.4787 87.6774 75.4417L85.4119 73.9442C85.3531 73.9268 85.2911 73.9233 85.2307 73.9338C85.1703 73.9444 85.1132 73.9687 85.0638 74.005L82.6657 75.5687C81.008 73.3585 78.1126 73.0712 74.8911 75.1654C70.1778 78.2321 66.6027 85.2717 66.9287 90.9023C67.2547 96.5329 71.3492 98.6382 76.046 95.5659C79.0574 93.6043 81.5992 90.0127 82.964 86.2055L84.9864 84.8904C85.4406 84.5674 85.8071 84.1363 86.0529 83.6361L86.296 83.1499C86.6975 82.3141 87.3062 81.5951 88.0642 81.0612L106.995 68.728C107.372 68.4699 107.685 68.1299 107.912 67.7334L109.017 65.91L109.504 65.0977L110.636 63.1472C110.738 62.9729 110.82 62.7875 110.879 62.5946C110.948 62.3844 110.98 62.1637 110.973 61.9426C110.962 61.5171 110.747 61.2022 110.366 61.2353ZM71.725 90.4879C70.5204 91.278 69.476 90.7421 69.3931 89.3054C69.3905 88.5259 69.5712 87.7567 69.9206 87.0598C70.27 86.363 70.7783 85.7581 71.4045 85.2938C72.609 84.5092 73.6534 85.0396 73.7363 86.4763C73.7389 87.2558 73.5582 88.025 73.2088 88.7219C72.8595 89.4187 72.3512 90.0236 71.725 90.4879Z" fill="white"/>
<path d="M71.8966 97.1187C71.1658 97.1238 70.4442 96.9553 69.7913 96.6269C68.0121 95.7318 66.9511 93.6983 66.7909 90.9024C66.487 85.2386 70.1063 78.1272 74.8141 75.0494C77.9471 73.0105 80.953 73.1431 82.6991 75.3809L84.9923 73.889C85.0585 73.8392 85.1358 73.8062 85.2176 73.7927C85.2994 73.7792 85.3832 73.7857 85.4619 73.8117L87.7551 75.3257C87.8451 75.3452 87.9385 75.3433 88.0277 75.3203C88.1169 75.2973 88.1995 75.2537 88.2689 75.1931C89.0448 74.5202 89.7485 73.7683 90.3687 72.9497C90.7754 72.39 91.2465 71.88 91.7722 71.4301C91.938 71.3362 92.2142 71.4301 92.59 71.5793C92.9338 71.7458 93.3133 71.8255 93.6951 71.8114C93.9823 71.7246 94.2378 71.5555 94.43 71.3251C94.7643 70.8787 95.0583 70.4035 95.3086 69.9051C95.578 69.3763 95.8922 68.8716 96.2479 68.3966C96.389 68.2294 96.5848 68.1178 96.8005 68.0816C97.0436 68.054 97.353 68.0153 97.5906 68.0043C98.043 67.6977 98.4584 67.3399 98.8284 66.9378C99.1442 66.5819 99.5045 66.268 99.9004 66.004C100.094 65.9322 100.569 66.0537 101.68 66.3742C102.569 66.6339 103.674 66.9268 104.022 66.8715C104.259 66.7954 104.465 66.6441 104.608 66.4405C104.89 66.0813 104.978 65.0094 105.05 64.07C105.122 63.1307 105.194 62.2521 105.454 61.9261C105.579 61.7608 105.73 61.6171 105.901 61.5006C106.049 61.3985 106.22 61.3358 106.398 61.3183L110.405 61.0917C110.509 61.0841 110.614 61.1016 110.71 61.143C110.806 61.1843 110.891 61.2483 110.957 61.3293C111.088 61.5055 111.161 61.7178 111.167 61.9371C111.172 62.0779 111.161 62.2188 111.134 62.3571L111.046 62.6444C110.981 62.8373 110.896 63.0226 110.791 63.197L108.029 67.7832C107.79 68.1972 107.464 68.5537 107.073 68.8276L88.1419 81.1718C87.4039 81.6946 86.8107 82.3961 86.4179 83.2107L86.1747 83.6915C85.9218 84.2151 85.5419 84.6672 85.0696 85.0066L83.0859 86.294C81.6548 90.2669 79.0578 93.7702 76.1292 95.6876C74.8852 96.5616 73.4157 97.0585 71.8966 97.1187ZM79.0467 73.9111C77.5793 73.9738 76.1612 74.4593 74.9633 75.3091C70.2997 78.3316 66.7577 85.316 67.0617 90.8913C67.2108 93.5878 68.2276 95.5384 69.9129 96.4169C71.5982 97.2955 73.7366 96.9308 75.991 95.4721C78.8809 93.5934 81.4448 90.1177 82.8538 86.1835V86.1393L84.9094 84.8021C85.3461 84.4931 85.6977 84.0787 85.9316 83.5975L86.1747 83.1113C86.577 82.245 87.2002 81.4999 87.9816 80.9508L106.912 68.6176C107.271 68.3675 107.569 68.041 107.785 67.6617L110.548 63.0754C110.628 62.9421 110.694 62.8015 110.747 62.6555V62.5615C110.812 62.3675 110.842 62.1636 110.836 61.9592C110.836 61.7961 110.783 61.6373 110.686 61.5061C110.647 61.4576 110.596 61.4197 110.538 61.3956C110.48 61.3715 110.417 61.362 110.355 61.368L106.354 61.5945C106.223 61.6084 106.097 61.656 105.99 61.7327C105.841 61.8318 105.71 61.9551 105.603 62.0974C105.398 62.3626 105.326 63.2412 105.26 64.0976C105.177 65.1254 105.094 66.1863 104.757 66.6118C104.582 66.8742 104.323 67.0691 104.022 67.1644C103.608 67.2638 102.558 66.9544 101.547 66.6615C101.026 66.4785 100.487 66.3507 99.939 66.2803C99.5844 66.5417 99.2552 66.8359 98.9555 67.1588C98.1598 67.9269 97.7619 68.264 97.5464 68.3026C97.3309 68.3413 96.9939 68.3468 96.7729 68.3745C96.6294 68.4104 96.5015 68.4919 96.4082 68.6065C96.0739 69.0599 95.7782 69.5405 95.5241 70.0432C95.267 70.5607 94.9617 71.0528 94.6123 71.513C94.3832 71.7778 94.0817 71.9699 93.7448 72.0656C93.3161 72.0977 92.8866 72.0137 92.5016 71.8224C92.3147 71.7356 92.1151 71.6796 91.9103 71.6567C91.4188 72.0952 90.9727 72.5821 90.5786 73.1099C89.9436 73.9468 89.2233 74.7153 88.4292 75.403C88.3199 75.4929 88.1896 75.5538 88.0505 75.5798C87.9114 75.6059 87.768 75.5964 87.6335 75.5522L85.3459 74.0382C85.2725 74.0386 85.2011 74.0618 85.1414 74.1045L82.6439 75.7622L82.5665 75.6572C82.1643 75.1037 81.6341 74.6557 81.0212 74.3516C80.4082 74.0476 79.7308 73.8964 79.0467 73.9111ZM70.6643 91.0405C70.4608 91.0427 70.2598 90.9953 70.0786 90.9024C69.8171 90.7418 69.6033 90.5142 69.4595 90.2431C69.3157 89.972 69.2471 89.6673 69.2608 89.3607C69.2588 88.5538 69.4475 87.7579 69.8114 87.0377C70.1753 86.3175 70.7042 85.6935 71.3551 85.2165C71.5928 85.0248 71.8775 84.9001 72.1797 84.8554C72.4818 84.8107 72.7904 84.8477 73.0735 84.9624C73.3349 85.1235 73.5488 85.3511 73.6935 85.6219C73.8381 85.8928 73.9083 86.1972 73.8968 86.504C73.8978 87.3121 73.7081 88.109 73.3433 88.83C72.9784 89.551 72.4487 90.1758 71.7971 90.6537C71.4607 90.8767 71.0678 90.9993 70.6643 91.0074V91.0405ZM72.5099 85.0673C72.156 85.085 71.8147 85.2039 71.5263 85.4099C70.9121 85.8592 70.4128 86.4472 70.069 87.1261C69.7253 87.805 69.5468 88.5556 69.5482 89.3165C69.535 89.5757 69.5904 89.8337 69.7087 90.0646C69.8271 90.2955 70.0042 90.4911 70.2223 90.6316C70.4642 90.7222 70.7256 90.7479 70.9805 90.7063C71.2355 90.6646 71.4751 90.5569 71.6755 90.394C72.282 89.94 72.7734 89.3501 73.1102 88.6715C73.4471 87.993 73.62 87.2449 73.615 86.4874C73.6288 86.2282 73.5737 85.97 73.4553 85.739C73.3369 85.508 73.1594 85.3125 72.9409 85.1723C72.8068 85.1057 72.6596 85.0698 72.5099 85.0673Z" fill="#B4B4B4"/>
<path d="M100.469 68.2086L100.237 68.4352C99.1653 69.474 98.5796 70.0431 97.6623 70.0929H97.5739C97.4247 70.3305 97.27 70.6454 97.1098 70.9162C96.7887 71.5629 96.3977 72.1725 95.9439 72.7341C95.475 73.2699 94.8577 73.6545 94.1701 73.8392L93.7668 73.9111H93.5347C93.1575 73.9101 92.7834 73.8427 92.4296 73.7121L91.9599 74.2647C91.2352 75.2381 90.3925 76.1178 89.4513 76.8838C88.9928 77.2281 88.4386 77.4212 87.8654 77.4364L87.2742 77.3977L86.7216 77.1712L85.2518 76.1987L82.1685 78.2045L81.0634 76.7346C80.8338 76.405 80.5255 76.1379 80.1666 75.9575C79.8077 75.777 79.4094 75.689 79.0079 75.7014C77.8927 75.77 76.8198 76.1531 75.9135 76.8065C73.7033 78.2542 71.7196 80.796 70.4266 83.603C71.0476 83.2018 71.7705 82.9871 72.5098 82.9841C74.289 82.9841 75.6151 84.3766 75.7257 86.3713C75.7439 87.5 75.4862 88.616 74.9748 89.6224C74.4635 90.6287 73.714 91.4949 72.7916 92.1456C72.1623 92.5714 71.4238 92.8074 70.6642 92.8252C70.1116 92.8252 69.5315 92.1069 69.117 92.4218C68.0782 93.2175 70.2222 95.041 71.8798 95.041C72.995 94.9724 74.0679 94.5892 74.9742 93.9359C77.4994 92.2782 79.8588 89.0789 81.1187 85.559L81.3507 84.9623L83.9146 83.3046C84.0834 83.1705 84.2179 82.9981 84.3069 82.8018L84.5556 82.31C85.1092 81.1565 85.9526 80.1665 87.0034 79.4367L103.144 68.938C102.438 68.7929 101.74 68.6084 101.055 68.3854L100.469 68.2086Z" fill="#0468FF"/>
<path d="M71.8912 95.1129C70.5761 95.1129 69.1284 94.0851 68.8135 93.2397C68.7484 93.085 68.7387 92.9125 68.786 92.7514C68.8333 92.5904 68.9348 92.4506 69.0732 92.3556C69.3495 92.1401 69.6699 92.3169 69.9794 92.4882C70.1848 92.6253 70.4194 92.7124 70.6646 92.7424C71.4091 92.7265 72.133 92.4942 72.7477 92.0738C73.6543 91.4283 74.3901 90.5718 74.8917 89.5783C75.3933 88.5848 75.6455 87.4841 75.6266 86.3714C75.516 84.4208 74.223 83.056 72.488 83.056C71.784 83.0708 71.0977 83.2792 70.5043 83.6583L70.2833 83.7964L70.3938 83.5588C71.7531 80.6192 73.7644 78.1272 75.9194 76.7292C76.8401 76.0715 77.9283 75.6883 79.058 75.6241C79.4688 75.6132 79.876 75.7032 80.244 75.8862C80.612 76.0693 80.9295 76.3397 81.1687 76.6739L82.2131 78.0885L85.2798 76.1214L86.7938 77.1215L87.3022 77.337L87.8547 77.3701C88.408 77.3647 88.9463 77.1891 89.3964 76.8673C90.3278 76.1001 91.1644 75.2246 91.8884 74.2592L92.115 73.983L92.3581 73.6901L92.3913 73.6459H92.4465C92.7883 73.7711 93.149 73.8365 93.513 73.8393H93.745L94.1318 73.7675C94.806 73.577 95.4093 73.1927 95.8669 72.6623C96.3137 72.103 96.699 71.4972 97.0162 70.8555L97.1654 70.5902C97.2759 70.3858 97.3809 70.1924 97.4803 70.0377V70.0045H97.519H97.613C98.5026 69.9603 99.0828 69.3967 100.138 68.3745L100.326 68.1921L100.403 68.1147H100.448L101.033 68.2916C101.717 68.5015 102.41 68.6767 103.111 68.8165L103.315 68.8497L87.048 79.492C86.0109 80.2037 85.1769 81.1729 84.6278 82.3045L84.3791 82.7963C84.2853 83.0114 84.1413 83.2008 83.9592 83.3489L81.4174 85.0065L81.2019 85.6033C79.9365 89.1342 77.5716 92.3611 75.0298 94.0188C74.1069 94.6707 73.0193 95.0498 71.8912 95.1129ZM69.3605 92.4164C69.2911 92.4144 69.2229 92.4358 69.1671 92.4772C69.057 92.5549 68.9771 92.6683 68.9408 92.7982C68.9046 92.928 68.9142 93.0664 68.9682 93.19C69.2279 93.9691 70.659 94.9526 71.8912 94.9526C72.9917 94.8788 74.049 94.4957 74.9414 93.8475C77.4555 92.1898 79.7984 89.0126 81.0527 85.5094L81.2848 84.8629L83.8708 83.2052C84.0265 83.0784 84.1512 82.9178 84.2355 82.7355L84.4841 82.2437C85.0486 81.0891 85.9012 80.0995 86.9596 79.3704L102.934 68.9381C102.382 68.8331 101.779 68.6563 101.033 68.4408L100.481 68.2805L100.293 68.4629C99.1878 69.5072 98.6352 70.0874 97.6682 70.1205H97.6185C97.5245 70.2753 97.4306 70.4521 97.3256 70.64L97.182 70.9052C96.8584 71.5789 96.4639 72.2161 96.005 72.806C95.5213 73.3456 94.8888 73.7301 94.1871 73.9111L93.7837 73.9885H93.5351C93.1699 73.9843 92.8079 73.9209 92.4631 73.8006L92.2586 74.0548L92.0321 74.3255C91.3033 75.3058 90.455 76.1912 89.5069 76.9613C89.0345 77.3109 88.4645 77.5041 87.8768 77.5138L87.2524 77.4696L86.6999 77.2431L85.2577 76.2927L82.1744 78.3316L81.0417 76.8065C80.8188 76.4865 80.5198 76.2269 80.1715 76.0513C79.8233 75.8758 79.4368 75.7897 79.0469 75.8009C77.9466 75.8756 76.8896 76.2586 75.9968 76.906C73.9302 78.2542 71.9907 80.6247 70.6425 83.4373C71.207 83.1212 71.8411 82.9504 72.488 82.94C74.3115 82.94 75.6708 84.3656 75.8034 86.4045C75.8235 87.5446 75.5653 88.6724 75.0511 89.6901C74.5369 90.7078 73.7823 91.5848 72.8527 92.2451C72.2108 92.6804 71.4565 92.9203 70.6811 92.9358C70.4085 92.9099 70.1465 92.8169 69.9186 92.665C69.7551 92.5388 69.5637 92.4535 69.3605 92.4164Z" fill="#152242"/>
</g>
<defs>
<linearGradient id="paint0_linear_154_618" x1="128.921" y1="73.2536" x2="173.479" y2="-3.92264" gradientUnits="userSpaceOnUse">
<stop stop-color="#CBCDD1"/>
<stop offset="1" stop-color="#AFAFB5" stop-opacity="0"/>
</linearGradient>
</defs>
</svg>
