<svg width="190" height="118" viewBox="0 0 190 118" fill="none" xmlns="http://www.w3.org/2000/svg">
<path style="mix-blend-mode:multiply" d="M1.15267 95.7607L64.2757 132.503C64.6341 132.713 65.042 132.824 65.4575 132.824C65.8729 132.824 66.2809 132.713 66.6392 132.503L189.745 60.6511L123.854 22.5044L1.20405 91.6846C0.843314 91.8863 0.542105 92.1796 0.33076 92.5347C0.119415 92.8899 0.00539626 93.2945 0.000186881 93.7078C-0.0050225 94.1211 0.0987617 94.5284 0.301087 94.8888C0.503412 95.2493 0.797133 95.55 1.15267 95.7607Z" fill="url(#paint0_linear_154_146)" fill-opacity="0.5"/>
<path d="M143.875 83.3496C143.604 83.0168 143.273 82.738 142.899 82.5275L83.7603 48.4056C82.7052 47.8762 81.5411 47.6006 80.3606 47.6006C79.1802 47.6006 78.0161 47.8762 76.961 48.4056L3.09381 91.0566C2.8129 91.2121 2.55376 91.4041 2.32311 91.6275L1.68942 91.6674V92.9976C1.68942 93.7112 2.15755 94.4248 3.09381 94.9672L62.2378 129.123C63.2913 129.658 64.456 129.937 65.6374 129.937C66.8188 129.937 67.9836 129.658 69.0371 129.123L142.904 86.4781C143.841 85.9414 144.309 85.2278 144.309 84.5199V83.1783L143.875 83.3496Z" fill="#152242"/>
<path d="M69.0322 127.793C67.9779 128.325 66.8135 128.602 65.6326 128.602C64.4517 128.602 63.2872 128.325 62.2329 127.793L3.09465 93.6256C1.22785 92.5466 1.22785 90.7712 3.09465 89.6979L76.9618 47.0526C78.0162 46.5206 79.1806 46.2435 80.3615 46.2435C81.5424 46.2435 82.7068 46.5206 83.7611 47.0526L142.899 81.1974C144.772 82.2764 144.772 84.0518 142.899 85.1251L69.0322 127.793Z" fill="white"/>
<path d="M65.6627 128.769C64.4504 128.794 63.2517 128.509 62.1803 127.942L3.00775 93.7969C2.04865 93.226 1.52344 92.4953 1.52344 91.6903C1.52344 90.8854 2.04865 90.1318 3.00775 89.578L76.8749 46.9327C77.9547 46.3837 79.1489 46.0975 80.3602 46.0975C81.5715 46.0975 82.7657 46.3837 83.8455 46.9327L142.984 81.0661C143.943 81.637 144.474 82.3734 144.474 83.1784C144.474 83.9833 143.943 84.7312 142.984 85.2849L69.1166 127.942C68.0536 128.505 66.8654 128.79 65.6627 128.769ZM80.3916 46.4303C79.2362 46.4059 78.094 46.6792 77.0747 47.2239L3.17901 89.8692C2.32839 90.3601 1.86026 91.011 1.86026 91.6846C1.86026 92.3582 2.32839 93.0148 3.17901 93.5057L62.3173 127.651C63.3454 128.171 64.4817 128.443 65.6341 128.443C66.7866 128.443 67.9229 128.171 68.951 127.651L142.818 84.9995C143.669 84.5085 144.137 83.8577 144.137 83.1841C144.137 82.5104 143.669 81.8596 142.818 81.3629L83.6799 47.2239C82.6601 46.6807 81.5183 46.4075 80.3631 46.4303H80.3916Z" fill="#152242"/>
<path d="M68.4601 125.116L8.37988 90.4287L81.8817 47.9889L141.962 82.676L68.4601 125.116Z" fill="#152242"/>
<path d="M68.4601 124.328L8.37988 89.6351L81.8817 47.201L141.962 81.8882L68.4601 124.328Z" fill="white"/>
<path d="M68.46 124.522L68.3744 124.476L8.04297 89.6294L8.29416 89.4867L81.8816 47.0012L81.9672 47.0526L142.299 81.8768L142.047 82.0195L68.46 124.522ZM8.71662 89.6294L68.46 124.134L141.625 81.8882L81.8816 47.3837L8.71662 89.6294Z" fill="#152242"/>
<path d="M74.3924 85.3249L91.0223 94.9329C91.2201 95.0314 91.438 95.0827 91.6589 95.0827C91.8798 95.0827 92.0977 95.0314 92.2954 94.9329C92.3727 94.9071 92.4398 94.8577 92.4875 94.7916C92.5351 94.7255 92.5607 94.6461 92.5607 94.5647C92.5607 94.4833 92.5351 94.4039 92.4875 94.3378C92.4398 94.2717 92.3727 94.2223 92.2954 94.1965L75.6655 84.5941C75.4677 84.4956 75.2498 84.4443 75.0289 84.4443C74.808 84.4443 74.5901 84.4956 74.3924 84.5941C74.3143 84.6183 74.2461 84.6668 74.1977 84.7326C74.1492 84.7983 74.123 84.8778 74.123 84.9595C74.123 85.0412 74.1492 85.1207 74.1977 85.1865C74.2461 85.2522 74.3143 85.3007 74.3924 85.3249Z" fill="#152242"/>
<path d="M57.6707 79.1764L74.3007 88.7788C74.4984 88.8773 74.7163 88.9286 74.9372 88.9286C75.1581 88.9286 75.376 88.8773 75.5737 88.7788C75.649 88.7517 75.7141 88.7022 75.7601 88.6368C75.8061 88.5714 75.8308 88.4934 75.8308 88.4134C75.8308 88.3334 75.8061 88.2554 75.7601 88.19C75.7141 88.1246 75.649 88.075 75.5737 88.048L58.9438 78.4457C58.7468 78.3445 58.5286 78.2917 58.3072 78.2917C58.0858 78.2917 57.8676 78.3445 57.6707 78.4457C57.5927 78.4699 57.5244 78.5184 57.476 78.5841C57.4275 78.6499 57.4014 78.7294 57.4014 78.8111C57.4014 78.8927 57.4275 78.9723 57.476 79.038C57.5244 79.1038 57.5927 79.1523 57.6707 79.1764Z" fill="#152242"/>
<path d="M99.4537 98.0329L94.6011 95.2356C94.4052 95.1344 94.1879 95.0817 93.9675 95.0817C93.747 95.0817 93.5297 95.1344 93.3338 95.2356C93.2558 95.2597 93.1875 95.3082 93.1391 95.374C93.0906 95.4397 93.0645 95.5193 93.0645 95.6009C93.0645 95.6826 93.0906 95.7621 93.1391 95.8279C93.1875 95.8936 93.2558 95.9421 93.3338 95.9663L98.2034 98.7637C98.4002 98.8621 98.6171 98.9134 98.8371 98.9134C99.0571 98.9134 99.2741 98.8621 99.4708 98.7637C99.5455 98.7349 99.6095 98.6838 99.654 98.6173C99.6985 98.5509 99.7214 98.4722 99.7195 98.3923C99.7176 98.3123 99.6911 98.2348 99.6435 98.1705C99.5959 98.1062 99.5296 98.0581 99.4537 98.0329Z" fill="#152242"/>
<path d="M57.0484 77.3097L52.1959 74.5123C52 74.4112 51.7827 74.3584 51.5622 74.3584C51.3417 74.3584 51.1244 74.4112 50.9285 74.5123C50.8505 74.5365 50.7823 74.585 50.7338 74.6507C50.6853 74.7165 50.6592 74.796 50.6592 74.8777C50.6592 74.9593 50.6853 75.0389 50.7338 75.1046C50.7823 75.1704 50.8505 75.2189 50.9285 75.243L55.7811 78.0461C55.9778 78.1446 56.1947 78.1958 56.4147 78.1958C56.6347 78.1958 56.8517 78.1446 57.0484 78.0461C57.1257 78.0203 57.1929 77.9709 57.2405 77.9048C57.2881 77.8387 57.3137 77.7593 57.3137 77.6779C57.3137 77.5964 57.2881 77.517 57.2405 77.451C57.1929 77.3849 57.1257 77.3354 57.0484 77.3097Z" fill="#152242"/>
<path d="M73.2321 83.3496L55.0379 72.8452C54.8402 72.7467 54.6223 72.6954 54.4014 72.6954C54.1805 72.6954 53.9626 72.7467 53.7648 72.8452C53.6896 72.8723 53.6245 72.9219 53.5785 72.9873C53.5325 73.0527 53.5078 73.1307 53.5078 73.2106C53.5078 73.2906 53.5325 73.3686 53.5785 73.434C53.6245 73.4994 53.6896 73.549 53.7648 73.576L71.9419 84.0575C72.1396 84.156 72.3575 84.2073 72.5784 84.2073C72.7994 84.2073 73.0173 84.156 73.215 84.0575C73.2839 84.0285 73.343 83.9801 73.3852 83.9183C73.4273 83.8565 73.4507 83.7839 73.4525 83.7091C73.4543 83.6343 73.4344 83.5606 73.3954 83.4968C73.3563 83.433 73.2996 83.3819 73.2321 83.3496Z" fill="#0468FF"/>
<path d="M95.5496 99.5344L77.3554 89.0586C77.1595 88.9574 76.9422 88.9047 76.7218 88.9047C76.5013 88.9047 76.284 88.9574 76.0881 89.0586C76.0128 89.0856 75.9477 89.1352 75.9017 89.2006C75.8557 89.266 75.8311 89.344 75.8311 89.4239C75.8311 89.5039 75.8557 89.5819 75.9017 89.6473C75.9477 89.7127 76.0128 89.7623 76.0881 89.7893L94.2823 100.299C94.479 100.398 94.696 100.449 94.916 100.449C95.136 100.449 95.3529 100.398 95.5496 100.299C95.9207 100.065 95.9207 99.7342 95.5496 99.5344Z" fill="#0468FF"/>
<path d="M67.2337 89.4866L83.8636 99.0947C84.0614 99.1932 84.2793 99.2445 84.5002 99.2445C84.7211 99.2445 84.939 99.1932 85.1367 99.0947C85.214 99.0689 85.2812 99.0194 85.3288 98.9534C85.3764 98.8873 85.402 98.8079 85.402 98.7264C85.402 98.645 85.3764 98.5656 85.3288 98.4995C85.2812 98.4335 85.214 98.384 85.1367 98.3582L68.5182 88.7559C68.3205 88.6574 68.1026 88.6061 67.8816 88.6061C67.6607 88.6061 67.4428 88.6574 67.2451 88.7559C67.1667 88.7788 67.0977 88.8262 67.0481 88.8912C66.9986 88.9562 66.9712 89.0354 66.97 89.1171C66.9687 89.1987 66.9936 89.2787 67.0411 89.3452C67.0885 89.4117 67.156 89.4613 67.2337 89.4866Z" fill="#152242"/>
<path d="M50.5007 83.3497L67.1306 92.952C67.3284 93.0505 67.5463 93.1018 67.7672 93.1018C67.9881 93.1018 68.206 93.0505 68.4037 92.952C68.479 92.925 68.544 92.8754 68.59 92.81C68.6361 92.7446 68.6607 92.6666 68.6607 92.5866C68.6607 92.5067 68.6361 92.4287 68.59 92.3633C68.544 92.2979 68.479 92.2483 68.4037 92.2213L51.768 82.6075C51.5721 82.5064 51.3548 82.4536 51.1344 82.4536C50.9139 82.4536 50.6966 82.5064 50.5007 82.6075C50.4179 82.6282 50.3444 82.676 50.292 82.7432C50.2395 82.8104 50.2109 82.8933 50.2109 82.9786C50.2109 83.0639 50.2395 83.1467 50.292 83.214C50.3444 83.2812 50.4179 83.329 50.5007 83.3497Z" fill="#0468FF"/>
<path d="M92.2957 102.189L87.4431 99.3916C87.2472 99.2904 87.0299 99.2377 86.8094 99.2377C86.5889 99.2377 86.3717 99.2904 86.1757 99.3916C85.8218 99.5914 85.8218 99.9168 86.1757 100.122L91.0283 102.925C91.225 103.024 91.442 103.075 91.662 103.075C91.882 103.075 92.0989 103.024 92.2957 102.925C92.3729 102.9 92.4401 102.85 92.4877 102.784C92.5353 102.718 92.5609 102.639 92.5609 102.557C92.5609 102.476 92.5353 102.396 92.4877 102.33C92.4401 102.264 92.3729 102.215 92.2957 102.189Z" fill="#152242"/>
<path d="M49.8904 81.4714L45.0378 78.674C44.8419 78.5729 44.6246 78.5201 44.4041 78.5201C44.1837 78.5201 43.9664 78.5729 43.7704 78.674C43.6924 78.6982 43.6242 78.7467 43.5757 78.8125C43.5273 78.8782 43.5011 78.9577 43.5011 79.0394C43.5011 79.1211 43.5273 79.2006 43.5757 79.2664C43.6242 79.3321 43.6924 79.3806 43.7704 79.4048L48.623 82.2078C48.8197 82.3063 49.0367 82.3576 49.2567 82.3576C49.4767 82.3576 49.6936 82.3063 49.8904 82.2078C49.9676 82.182 50.0348 82.1326 50.0824 82.0665C50.13 82.0004 50.1556 81.9211 50.1556 81.8396C50.1556 81.7582 50.13 81.6788 50.0824 81.6127C50.0348 81.5466 49.9676 81.4972 49.8904 81.4714Z" fill="#152242"/>
<path d="M66.069 87.4829L47.8805 76.9785C47.6828 76.88 47.4649 76.8287 47.244 76.8287C47.0231 76.8287 46.8052 76.88 46.6075 76.9785C46.5322 77.0056 46.4671 77.0552 46.4211 77.1206C46.3751 77.186 46.3504 77.264 46.3504 77.3439C46.3504 77.4239 46.3751 77.5019 46.4211 77.5673C46.4671 77.6327 46.5322 77.6823 46.6075 77.7093L64.8017 88.2193C64.9984 88.3178 65.2153 88.3691 65.4353 88.3691C65.6553 88.3691 65.8723 88.3178 66.069 88.2193C66.423 88.0138 66.423 87.6827 66.069 87.4829Z" fill="#152242"/>
<path d="M88.3902 103.696L70.196 93.1917C70.0001 93.0906 69.7828 93.0378 69.5623 93.0378C69.3419 93.0378 69.1246 93.0906 68.9287 93.1917C68.8506 93.2159 68.7824 93.2644 68.7339 93.3302C68.6855 93.3959 68.6593 93.4754 68.6593 93.5571C68.6593 93.6388 68.6855 93.7183 68.7339 93.7841C68.7824 93.8498 68.8506 93.8983 68.9287 93.9225L87.1228 104.427C87.3188 104.528 87.536 104.581 87.7565 104.581C87.977 104.581 88.1943 104.528 88.3902 104.427C88.4682 104.403 88.5365 104.354 88.5849 104.288C88.6334 104.223 88.6595 104.143 88.6595 104.061C88.6595 103.98 88.6334 103.9 88.5849 103.835C88.5365 103.769 88.4682 103.72 88.3902 103.696Z" fill="#152242"/>
<path d="M60.074 93.6256L76.704 103.228C76.9009 103.329 77.1191 103.382 77.3405 103.382C77.5619 103.382 77.7801 103.329 77.9771 103.228C78.0523 103.201 78.1174 103.151 78.1634 103.086C78.2094 103.021 78.2341 102.943 78.2341 102.863C78.2341 102.783 78.2094 102.705 78.1634 102.639C78.1174 102.574 78.0523 102.524 77.9771 102.497L61.3414 92.8949C61.1447 92.7964 60.9277 92.7451 60.7077 92.7451C60.4877 92.7451 60.2707 92.7964 60.074 92.8949C59.996 92.919 59.9278 92.9675 59.8793 93.0333C59.8308 93.099 59.8047 93.1785 59.8047 93.2602C59.8047 93.3419 59.8308 93.4214 59.8793 93.4872C59.9278 93.5529 59.996 93.6014 60.074 93.6256Z" fill="#152242"/>
<path d="M43.3416 87.5L59.9545 97.1023C60.1522 97.2009 60.3701 97.2522 60.591 97.2522C60.8119 97.2522 61.0298 97.2009 61.2276 97.1023C61.3028 97.0753 61.3679 97.0257 61.4139 96.9603C61.4599 96.8949 61.4846 96.8169 61.4846 96.737C61.4846 96.657 61.4599 96.579 61.4139 96.5136C61.3679 96.4482 61.3028 96.3986 61.2276 96.3716L44.609 86.775C44.4123 86.6765 44.1953 86.6252 43.9753 86.6252C43.7553 86.6252 43.5384 86.6765 43.3416 86.775C42.9877 86.9691 42.9877 87.3002 43.3416 87.5Z" fill="#152242"/>
<path d="M85.1362 106.356L80.2836 103.553C80.0869 103.455 79.8699 103.404 79.6499 103.404C79.4299 103.404 79.213 103.455 79.0162 103.553C78.939 103.579 78.8718 103.629 78.8242 103.695C78.7766 103.761 78.751 103.84 78.751 103.922C78.751 104.003 78.7766 104.082 78.8242 104.149C78.8718 104.215 78.939 104.264 79.0162 104.29L83.8688 107.087C84.0647 107.188 84.282 107.241 84.5025 107.241C84.723 107.241 84.9402 107.188 85.1362 107.087C85.2114 107.06 85.2765 107.011 85.3225 106.945C85.3685 106.88 85.3932 106.802 85.3932 106.722C85.3932 106.642 85.3685 106.564 85.3225 106.498C85.2765 106.433 85.2114 106.383 85.1362 106.356Z" fill="#152242"/>
<path d="M42.731 85.6331L37.8785 82.8358C37.6826 82.7347 37.4653 82.6819 37.2448 82.6819C37.0243 82.6819 36.807 82.7347 36.6111 82.8358C36.5331 82.86 36.4649 82.9085 36.4164 82.9742C36.3679 83.0399 36.3418 83.1195 36.3418 83.2012C36.3418 83.2828 36.3679 83.3624 36.4164 83.4281C36.4649 83.4939 36.5331 83.5424 36.6111 83.5665L41.4637 86.3696C41.6604 86.468 41.8774 86.5193 42.0974 86.5193C42.3173 86.5193 42.5343 86.468 42.731 86.3696C42.8083 86.3438 42.8755 86.2944 42.9231 86.2283C42.9707 86.1622 42.9963 86.0828 42.9963 86.0014C42.9963 85.9199 42.9707 85.8405 42.9231 85.7744C42.8755 85.7084 42.8083 85.6589 42.731 85.6331Z" fill="#152242"/>
<path d="M58.909 91.6447L40.7148 81.1404C40.5189 81.0392 40.3016 80.9865 40.0811 80.9865C39.8607 80.9865 39.6434 81.0392 39.4475 81.1404C39.3722 81.1674 39.3071 81.217 39.2611 81.2824C39.2151 81.3478 39.1904 81.4258 39.1904 81.5057C39.1904 81.5857 39.2151 81.6637 39.2611 81.7291C39.3071 81.7945 39.3722 81.8441 39.4475 81.8711L57.6702 92.3811C57.8669 92.4796 58.0839 92.5309 58.3039 92.5309C58.5239 92.5309 58.7408 92.4796 58.9376 92.3811C59.263 92.1756 59.263 91.8445 58.909 91.6447Z" fill="#152242"/>
<path d="M81.2319 107.858L63.0377 97.3535C62.8417 97.2524 62.6245 97.1996 62.404 97.1996C62.1835 97.1996 61.9662 97.2524 61.7703 97.3535C61.6923 97.3776 61.624 97.4262 61.5756 97.4919C61.5271 97.5576 61.501 97.6372 61.501 97.7189C61.501 97.8005 61.5271 97.8801 61.5756 97.9458C61.624 98.0115 61.6923 98.0601 61.7703 98.0842L79.9645 108.589C80.1604 108.69 80.3777 108.742 80.5982 108.742C80.8187 108.742 81.0359 108.69 81.2319 108.589C81.3099 108.564 81.3781 108.516 81.4266 108.45C81.475 108.384 81.5012 108.305 81.5012 108.223C81.5012 108.142 81.475 108.062 81.4266 107.996C81.3781 107.93 81.3099 107.882 81.2319 107.858Z" fill="#0468FF"/>
<path d="M53.1892 97.8102L69.8192 107.413C70.0161 107.514 70.2343 107.567 70.4557 107.567C70.6771 107.567 70.8954 107.514 71.0923 107.413C71.1675 107.386 71.2326 107.336 71.2786 107.271C71.3246 107.205 71.3493 107.127 71.3493 107.047C71.3493 106.967 71.3246 106.889 71.2786 106.824C71.2326 106.758 71.1675 106.709 71.0923 106.682L54.4623 97.0795C54.2654 96.9783 54.0472 96.9255 53.8258 96.9255C53.6044 96.9255 53.3862 96.9783 53.1892 97.0795C53.1112 97.1037 53.043 97.1522 52.9945 97.2179C52.9461 97.2837 52.9199 97.3632 52.9199 97.4449C52.9199 97.5265 52.9461 97.6061 52.9945 97.6718C53.043 97.7375 53.1112 97.7861 53.1892 97.8102Z" fill="#152242"/>
<path d="M36.4568 91.6618L53.1039 101.264C53.3016 101.363 53.5195 101.414 53.7404 101.414C53.9613 101.414 54.1792 101.363 54.377 101.264C54.4522 101.237 54.5173 101.187 54.5633 101.122C54.6093 101.057 54.634 100.979 54.634 100.899C54.634 100.819 54.6093 100.741 54.5633 100.675C54.5173 100.61 54.4522 100.56 54.377 100.533L37.7299 90.9253C37.5321 90.8268 37.3142 90.7755 37.0933 90.7755C36.8724 90.7755 36.6545 90.8268 36.4568 90.9253C36.1028 91.1308 36.1028 91.462 36.4568 91.6618Z" fill="#152242"/>
<path d="M78.2516 110.513L73.3991 107.715C73.2024 107.617 72.9854 107.565 72.7654 107.565C72.5454 107.565 72.3284 107.617 72.1317 107.715C72.0545 107.741 71.9873 107.79 71.9397 107.856C71.8921 107.923 71.8665 108.002 71.8665 108.083C71.8665 108.165 71.8921 108.244 71.9397 108.31C71.9873 108.376 72.0545 108.426 72.1317 108.452L76.9843 111.255C77.181 111.353 77.398 111.404 77.618 111.404C77.8379 111.404 78.0549 111.353 78.2516 111.255C78.3282 111.227 78.3945 111.177 78.4414 111.111C78.4882 111.044 78.5134 110.965 78.5134 110.884C78.5134 110.802 78.4882 110.723 78.4414 110.657C78.3945 110.59 78.3282 110.54 78.2516 110.513Z" fill="#152242"/>
<path d="M35.8463 89.795L30.9937 86.9976C30.7978 86.8965 30.5805 86.8438 30.36 86.8438C30.1396 86.8438 29.9223 86.8965 29.7264 86.9976C29.6483 87.0218 29.5801 87.0703 29.5316 87.1361C29.4832 87.2018 29.457 87.2813 29.457 87.363C29.457 87.4447 29.4832 87.5242 29.5316 87.59C29.5801 87.6557 29.6483 87.7042 29.7264 87.7284L34.5789 90.5314C34.7756 90.6299 34.9926 90.6812 35.2126 90.6812C35.4326 90.6812 35.6495 90.6299 35.8463 90.5314C35.9235 90.5057 35.9907 90.4562 36.0383 90.3901C36.0859 90.3241 36.1115 90.2447 36.1115 90.1632C36.1115 90.0818 36.0859 90.0024 36.0383 89.9363C35.9907 89.8702 35.9235 89.8208 35.8463 89.795Z" fill="#152242"/>
<path d="M52.0309 95.8065L33.8367 85.3021C33.6398 85.201 33.4215 85.1482 33.2001 85.1482C32.9787 85.1482 32.7605 85.201 32.5636 85.3021C32.4884 85.3292 32.4233 85.3787 32.3773 85.4441C32.3313 85.5095 32.3066 85.5875 32.3066 85.6675C32.3066 85.7475 32.3313 85.8255 32.3773 85.8909C32.4233 85.9563 32.4884 86.0059 32.5636 86.0329L50.7578 96.5372C50.9547 96.6384 51.1729 96.6912 51.3943 96.6912C51.6157 96.6912 51.834 96.6384 52.0309 96.5372C52.1061 96.5102 52.1712 96.4606 52.2172 96.3952C52.2632 96.3298 52.2879 96.2518 52.2879 96.1718C52.2879 96.0919 52.2632 96.0139 52.2172 95.9485C52.1712 95.8831 52.1061 95.8335 52.0309 95.8065Z" fill="#152242"/>
<path d="M74.3464 112.02L56.1522 101.515C55.9563 101.414 55.739 101.361 55.5185 101.361C55.2981 101.361 55.0808 101.414 54.8849 101.515C54.8096 101.542 54.7445 101.592 54.6985 101.657C54.6525 101.723 54.6278 101.801 54.6278 101.881C54.6278 101.961 54.6525 102.039 54.6985 102.104C54.7445 102.169 54.8096 102.219 54.8849 102.246L73.0848 112.75C73.2807 112.851 73.498 112.904 73.7185 112.904C73.9389 112.904 74.1562 112.851 74.3521 112.75C74.43 112.726 74.4978 112.677 74.5458 112.61C74.5937 112.544 74.6193 112.465 74.6186 112.383C74.618 112.301 74.5912 112.222 74.5422 112.156C74.4933 112.091 74.4246 112.043 74.3464 112.02Z" fill="#152242"/>
<path d="M46.031 101.972L62.661 111.574C62.8587 111.673 63.0766 111.724 63.2975 111.724C63.5185 111.724 63.7364 111.673 63.9341 111.574C64.0093 111.547 64.0744 111.498 64.1204 111.432C64.1664 111.367 64.1911 111.289 64.1911 111.209C64.1911 111.129 64.1664 111.051 64.1204 110.986C64.0744 110.92 64.0093 110.871 63.9341 110.844L47.2984 101.241C47.1025 101.14 46.8852 101.087 46.6647 101.087C46.4442 101.087 46.227 101.14 46.031 101.241C45.953 101.265 45.8848 101.314 45.8363 101.38C45.7879 101.445 45.7617 101.525 45.7617 101.607C45.7617 101.688 45.7879 101.768 45.8363 101.834C45.8848 101.899 45.953 101.948 46.031 101.972Z" fill="#152242"/>
<path d="M29.2977 95.8235L45.9277 105.426C46.1254 105.524 46.3433 105.576 46.5642 105.576C46.7851 105.576 47.003 105.524 47.2007 105.426C47.276 105.399 47.3411 105.349 47.3871 105.284C47.4331 105.218 47.4578 105.14 47.4578 105.06C47.4578 104.981 47.4331 104.903 47.3871 104.837C47.3411 104.772 47.276 104.722 47.2007 104.695L30.5708 95.0871C30.373 94.9885 30.1551 94.9373 29.9342 94.9373C29.7133 94.9373 29.4954 94.9885 29.2977 95.0871C28.9437 95.2926 28.9437 95.6237 29.2977 95.8235Z" fill="#152242"/>
<path d="M71.0921 114.674L66.2338 111.894C66.0371 111.796 65.8201 111.744 65.6001 111.744C65.3801 111.744 65.1632 111.796 64.9664 111.894C64.8892 111.92 64.822 111.969 64.7744 112.035C64.7268 112.101 64.7012 112.181 64.7012 112.262C64.7012 112.344 64.7268 112.423 64.7744 112.489C64.822 112.555 64.8892 112.605 64.9664 112.63L69.819 115.428C70.0157 115.526 70.2327 115.578 70.4527 115.578C70.6727 115.578 70.8896 115.526 71.0864 115.428C71.1707 115.408 71.2458 115.36 71.2997 115.292C71.3537 115.224 71.3833 115.14 71.384 115.053C71.3846 114.967 71.3563 114.882 71.3034 114.813C71.2504 114.745 71.1761 114.696 71.0921 114.674Z" fill="#152242"/>
<path d="M28.6869 93.9567L23.8344 91.1536C23.6376 91.0552 23.4207 91.0039 23.2007 91.0039C22.9807 91.0039 22.7637 91.0552 22.567 91.1536C22.4897 91.1794 22.4226 91.2289 22.3749 91.2949C22.3273 91.361 22.3017 91.4404 22.3017 91.5219C22.3017 91.6033 22.3273 91.6827 22.3749 91.7488C22.4226 91.8148 22.4897 91.8643 22.567 91.8901L27.4195 94.6931C27.6163 94.7916 27.8332 94.8429 28.0532 94.8429C28.2732 94.8429 28.4902 94.7916 28.6869 94.6931C28.7642 94.6673 28.8313 94.6179 28.879 94.5518C28.9266 94.4857 28.9522 94.4064 28.9522 94.3249C28.9522 94.2435 28.9266 94.1641 28.879 94.098C28.8313 94.0319 28.7642 93.9825 28.6869 93.9567Z" fill="#152242"/>
<path d="M44.8651 99.9682L26.6766 89.4639C26.4797 89.3627 26.2614 89.3099 26.04 89.3099C25.8187 89.3099 25.6004 89.3627 25.4035 89.4639C25.3283 89.4909 25.2632 89.5405 25.2172 89.6059C25.1712 89.6713 25.1465 89.7493 25.1465 89.8293C25.1465 89.9092 25.1712 89.9872 25.2172 90.0526C25.2632 90.118 25.3283 90.1676 25.4035 90.1946L43.5977 100.699C43.7936 100.8 44.0109 100.853 44.2314 100.853C44.4519 100.853 44.6692 100.8 44.8651 100.699C44.9431 100.675 45.0113 100.626 45.0598 100.561C45.1083 100.495 45.1344 100.415 45.1344 100.334C45.1344 100.252 45.1083 100.172 45.0598 100.107C45.0113 100.041 44.9431 99.9924 44.8651 99.9682Z" fill="#152242"/>
<path d="M67.1869 116.181L48.9927 105.671C48.796 105.573 48.579 105.522 48.359 105.522C48.1391 105.522 47.9221 105.573 47.7254 105.671C47.3714 105.877 47.3714 106.208 47.7254 106.408L65.9196 116.912C66.1163 117.011 66.3333 117.062 66.5532 117.062C66.7732 117.062 66.9902 117.011 67.1869 116.912C67.5409 116.707 67.5409 116.381 67.1869 116.181Z" fill="#152242"/>
<path d="M116.655 70.7902L99.8476 61.0851C99.6271 60.9578 99.4439 60.7748 99.3166 60.5543C99.1893 60.3338 99.1223 60.0837 99.1223 59.8291C99.1223 59.5745 99.1893 59.3244 99.3166 59.1039C99.4439 58.8835 99.6271 58.7004 99.8476 58.5732L102.925 56.7863C103.145 56.6601 103.395 56.5938 103.65 56.5938C103.904 56.5938 104.154 56.6601 104.375 56.7863L121.187 66.4914C121.408 66.6186 121.591 66.8017 121.718 67.0221C121.846 67.2426 121.913 67.4927 121.913 67.7473C121.913 68.0019 121.846 68.252 121.718 68.4725C121.591 68.693 121.408 68.876 121.187 69.0033L118.105 70.7844C117.885 70.9131 117.635 70.9815 117.38 70.9825C117.126 70.9835 116.875 70.9171 116.655 70.7902Z" fill="#152242"/>
<path d="M116.655 70.1507L99.8476 60.4456C99.6271 60.3184 99.4439 60.1353 99.3166 59.9149C99.1893 59.6944 99.1223 59.4443 99.1223 59.1897C99.1223 58.9351 99.1893 58.685 99.3166 58.4645C99.4439 58.2441 99.6271 58.061 99.8476 57.9337L102.925 56.1469C103.145 56.0207 103.395 55.9543 103.65 55.9543C103.904 55.9543 104.154 56.0207 104.375 56.1469L121.187 65.852C121.408 65.9792 121.591 66.1623 121.718 66.3827C121.846 66.6032 121.913 66.8533 121.913 67.1079C121.913 67.3625 121.846 67.6126 121.718 67.8331C121.591 68.0536 121.408 68.2366 121.187 68.3639L118.105 70.1507C117.884 70.2769 117.634 70.3433 117.38 70.3433C117.125 70.3433 116.875 70.2769 116.655 70.1507Z" fill="#D11D04"/>
<path d="M117.38 70.5104C117.097 70.5103 116.819 70.4354 116.575 70.2934L99.7621 60.5883C99.5154 60.4469 99.3104 60.2428 99.1678 59.9967C99.0253 59.7506 98.9502 59.4712 98.9502 59.1868C98.9502 58.9024 99.0253 58.623 99.1678 58.377C99.3104 58.1309 99.5154 57.9268 99.7621 57.7853L102.839 56.0041C103.085 55.8613 103.365 55.786 103.65 55.786C103.935 55.786 104.214 55.8613 104.461 56.0041L121.273 65.7092C121.52 65.8507 121.725 66.0548 121.867 66.3009C122.01 66.547 122.085 66.8263 122.085 67.1107C122.085 67.3951 122.01 67.6745 121.867 67.9206C121.725 68.1667 121.52 68.3708 121.273 68.5123L118.19 70.2934C117.943 70.4347 117.664 70.5094 117.38 70.5104ZM103.65 56.124C103.425 56.1248 103.205 56.1838 103.01 56.2953L99.9277 58.0764C99.7282 58.1915 99.5634 58.3584 99.4509 58.5593C99.3383 58.7603 99.2821 58.988 99.2883 59.2182C99.2865 59.4437 99.3454 59.6656 99.4589 59.8605C99.5724 60.0553 99.7363 60.2161 99.9334 60.3257L116.74 70.0308C116.936 70.143 117.157 70.202 117.383 70.202C117.608 70.202 117.829 70.143 118.025 70.0308L121.108 68.2497C121.302 68.1367 121.463 67.9746 121.575 67.7798C121.687 67.5849 121.746 67.3641 121.746 67.1393C121.746 66.9145 121.687 66.6936 121.575 66.4988C121.463 66.3039 121.302 66.1419 121.108 66.0289L104.295 56.3238C104.101 56.2016 103.879 56.1327 103.65 56.124Z" fill="#152242"/>
<path style="mix-blend-mode:multiply" d="M146.638 99.2145L101.63 124.813C100.037 125.727 97.8561 123.043 98.4441 122.701L142.243 95.7721L146.638 99.2145Z" fill="url(#paint1_linear_154_146)"/>
<path d="M127.48 104.918C128.724 104.101 130.111 104.918 130.774 105.911C131.527 107.053 131.019 108.611 129.769 109.422L113.31 118.471L111.261 114.617L127.48 104.918Z" fill="white"/>
<path d="M113.242 118.699L111.038 114.554L127.388 104.775C128.667 103.942 130.157 104.689 130.916 105.82C131.088 106.081 131.205 106.373 131.26 106.68C131.316 106.987 131.31 107.302 131.242 107.607C131.152 108.008 130.983 108.387 130.746 108.723C130.509 109.06 130.208 109.345 129.86 109.565L113.242 118.699ZM111.489 114.703L113.379 118.265L129.689 109.296C130.305 108.908 130.744 108.293 130.911 107.584C130.969 107.322 130.975 107.052 130.928 106.788C130.881 106.525 130.782 106.273 130.637 106.048C129.969 105.055 128.667 104.387 127.571 105.1L111.489 114.703Z" fill="#152242"/>
<path d="M130.202 111.238C127.542 114.092 121.342 117.323 115.605 119.949C115.458 120.025 115.287 120.039 115.129 119.989C114.972 119.939 114.841 119.828 114.765 119.681C114.69 119.534 114.675 119.363 114.726 119.206C114.776 119.048 114.887 118.917 115.034 118.842C120.434 115.902 126.058 112.739 127.622 111.489C127.846 111.347 128.02 111.137 128.116 110.889C128.213 110.641 128.228 110.369 128.158 110.113C128.079 109.848 128.092 109.564 128.196 109.308C128.3 109.051 128.488 108.838 128.729 108.703C128.938 108.582 129.178 108.526 129.418 108.544C129.658 108.561 129.888 108.65 130.077 108.8C130.665 109.279 131.247 110.13 130.202 111.238Z" fill="#D11D04"/>
<path d="M115.33 120.178C115.158 120.171 114.992 120.108 114.858 119.999C114.724 119.89 114.63 119.74 114.589 119.572C114.548 119.404 114.563 119.227 114.632 119.068C114.701 118.91 114.82 118.778 114.971 118.693C121.907 114.92 126.251 112.414 127.53 111.357C127.727 111.235 127.88 111.052 127.966 110.837C128.053 110.621 128.068 110.383 128.01 110.159C127.921 109.859 127.935 109.538 128.05 109.247C128.165 108.956 128.374 108.712 128.643 108.554C128.88 108.417 129.153 108.354 129.426 108.375C129.699 108.395 129.959 108.498 130.173 108.669C130.383 108.817 130.559 109.008 130.692 109.228C130.825 109.448 130.91 109.693 130.944 109.947C130.945 110.211 130.89 110.473 130.784 110.715C130.678 110.957 130.522 111.174 130.327 111.352C128.084 113.732 123.157 116.678 115.673 120.103C115.565 120.151 115.448 120.177 115.33 120.178ZM129.334 108.709C129.15 108.709 128.969 108.756 128.809 108.846C128.605 108.967 128.447 109.153 128.361 109.375C128.275 109.596 128.266 109.84 128.335 110.067C128.417 110.353 128.405 110.658 128.303 110.937C128.2 111.216 128.011 111.455 127.764 111.62C126.451 112.67 122.209 115.154 115.159 118.99C115.062 119.049 114.992 119.142 114.96 119.25C114.929 119.359 114.939 119.475 114.989 119.576C115.04 119.677 115.126 119.756 115.231 119.796C115.337 119.837 115.454 119.837 115.559 119.795C122.894 116.438 127.924 113.441 130.105 111.123C130.265 110.978 130.394 110.803 130.484 110.606C130.575 110.41 130.624 110.198 130.63 109.982C130.601 109.773 130.529 109.572 130.418 109.393C130.307 109.214 130.159 109.061 129.985 108.943C129.804 108.788 129.572 108.705 129.334 108.709Z" fill="#152242"/>
<path d="M114.189 116.461C114.237 116.717 114.233 116.979 114.175 117.233C114.118 117.486 114.008 117.725 113.854 117.934C113.699 118.143 113.503 118.318 113.278 118.448C113.053 118.578 112.803 118.659 112.544 118.688C111.99 118.656 111.465 118.43 111.06 118.05C110.655 117.67 110.397 117.161 110.329 116.61C110.281 116.354 110.285 116.091 110.343 115.837C110.4 115.583 110.51 115.344 110.664 115.134C110.818 114.925 111.014 114.749 111.24 114.619C111.465 114.489 111.715 114.407 111.974 114.377C112.529 114.41 113.055 114.636 113.46 115.017C113.865 115.398 114.123 115.909 114.189 116.461Z" fill="#152242"/>
<path d="M110.763 115.348C111.756 114.777 112.795 114.777 113.452 115.867C113.566 116.098 113.634 116.349 113.651 116.605C113.668 116.862 113.634 117.119 113.551 117.363C113.468 117.606 113.338 117.831 113.169 118.024C112.999 118.217 112.792 118.375 112.561 118.488C112.561 118.488 91.5184 130.848 90.0912 130.888C89.8188 130.916 89.5441 130.863 89.3015 130.736C89.0588 130.609 88.8589 130.414 88.7268 130.174C88.5912 129.94 88.524 129.672 88.5331 129.402C88.5422 129.131 88.6271 128.869 88.7782 128.644C88.9894 128.273 110.763 115.348 110.763 115.348Z" fill="white"/>
<path d="M90.0339 131.059C89.744 131.074 89.4557 131.007 89.2022 130.866C88.9487 130.724 88.7403 130.514 88.6009 130.259C88.4467 129.998 88.3697 129.699 88.3788 129.396C88.3879 129.093 88.4827 128.798 88.6523 128.547C88.8407 128.17 104.135 119.076 110.7 115.182C111.887 114.497 112.984 114.714 113.617 115.753C113.742 115.96 113.823 116.191 113.855 116.43C113.888 116.67 113.871 116.913 113.806 117.146C113.722 117.454 113.578 117.741 113.382 117.992C113.186 118.243 112.942 118.452 112.664 118.608C111.802 119.11 91.541 130.984 90.1138 131.024L90.0339 131.059ZM110.871 115.496C104.928 119.019 89.4059 128.267 88.932 128.747C88.8006 128.945 88.7272 129.177 88.7201 129.415C88.7131 129.653 88.7726 129.888 88.8921 130.094C89.0101 130.308 89.1896 130.482 89.4074 130.593C89.6252 130.704 89.8713 130.747 90.1138 130.716C91.2556 130.688 106.67 121.776 112.498 118.345C112.737 118.213 112.947 118.034 113.115 117.819C113.284 117.604 113.408 117.358 113.48 117.095C113.533 116.904 113.547 116.705 113.522 116.509C113.496 116.313 113.432 116.124 113.332 115.953C112.59 114.748 111.471 115.148 110.871 115.496Z" fill="#152242"/>
<path d="M92.6721 84.0062V87.8254L112.619 85.3364V81.5L92.6721 84.0062Z" fill="white"/>
<path d="M92.4952 88.0138V83.8577L112.773 81.3115V85.4847H112.625L92.4952 88.0138ZM92.832 84.1546V87.6313L112.476 85.1879V81.694L92.832 84.1546Z" fill="#152242"/>
<path d="M91.8848 82.2992V83.538L111.832 81.0489V79.793L91.8848 82.2992Z" fill="#152242"/>
<path d="M91.8848 83.5438L92.6726 84.0005L112.619 81.5114L111.832 81.0376L91.8848 83.5438Z" fill="#152242"/>
<path d="M91.8848 83.5438L92.6726 84.0005L112.619 81.5114L111.832 81.0376L91.8848 83.5438Z" fill="white"/>
<path d="M92.637 84.1717L91.3525 83.4353L111.853 80.8606L113.109 81.6199L92.637 84.1717ZM92.3973 83.6465L92.7055 83.8235L112.116 81.4087L111.79 81.2088L92.3973 83.6465Z" fill="#152242"/>
<path d="M92.7178 78.3829V82.1964L112.665 79.7131V75.8767L92.7178 78.3829Z" fill="white"/>
<path d="M92.5518 82.3848V78.2117L112.83 75.6598V79.8387H112.681L92.5518 82.3848ZM92.8886 78.5314V82.0081L112.476 79.5647V76.0651L92.8886 78.5314Z" fill="#152242"/>
<path d="M91.9297 76.676V77.9091L111.876 75.4257V74.1641L91.9297 76.676Z" fill="#152242"/>
<path d="M91.9297 77.9148L92.7175 78.3715L112.664 75.8881L111.876 75.4086L91.9297 77.9148Z" fill="#152242"/>
<path d="M91.9297 77.9148L92.7175 78.3715L112.664 75.8881L111.876 75.4086L91.9297 77.9148Z" fill="white"/>
<path d="M92.6835 78.5428L91.4104 77.812L111.905 75.2373L113.161 75.9966L92.6835 78.5428ZM92.4494 78.0232L92.752 78.2002L112.162 75.7797L111.837 75.5855L92.4494 78.0232Z" fill="#152242"/>
<path d="M92.7178 72.7711V76.5846L112.665 74.0955V70.2649L92.7178 72.7711Z" fill="white"/>
<path d="M92.5518 76.773V72.617L112.83 70.0708V74.2497H112.681L92.5518 76.773ZM92.8886 72.9138V76.3905L112.476 73.9471V70.4533L92.8886 72.9138Z" fill="#152242"/>
<path d="M91.9297 71.0584V72.2973L111.876 69.8139V68.5522L91.9297 71.0584Z" fill="#152242"/>
<path d="M91.9297 72.303L92.7175 72.7597L112.664 70.2763L111.876 69.7968L91.9297 72.303Z" fill="#152242"/>
<path d="M91.9297 72.303L92.7175 72.7597L112.664 70.2763L111.876 69.7968L91.9297 72.303Z" fill="white"/>
<path d="M92.6835 72.9309L91.4104 72.2002L111.905 69.6483L113.161 70.4019L92.6835 72.9309ZM92.4437 72.4057L92.752 72.5827L112.162 70.1678L111.837 69.9737L92.4437 72.4057Z" fill="#152242"/>
<path d="M92.7178 67.1421V70.9613L112.665 68.4723V64.6416L92.7178 67.1421Z" fill="white"/>
<path d="M92.5518 71.1497V66.9937L112.83 64.4475V68.6207H112.681L92.5518 71.1497ZM92.8886 67.2905V70.7901L112.476 68.3238V64.83L92.8886 67.2905Z" fill="#152242"/>
<path d="M91.9297 65.4352V66.674L111.876 64.1906V62.929L91.9297 65.4352Z" fill="#152242"/>
<path d="M91.9297 66.6797L92.7175 67.1364L112.664 64.653L111.876 64.1735L91.9297 66.6797Z" fill="#152242"/>
<path d="M91.9297 66.6797L92.7175 67.1364L112.664 64.653L111.876 64.1735L91.9297 66.6797Z" fill="white"/>
<path d="M92.6835 67.3076L91.4104 66.5769L111.905 64.0022L113.161 64.7558L92.6835 67.3076ZM92.4437 66.7824L92.752 66.9594L112.162 64.5445L111.837 64.3504L92.4437 66.7824Z" fill="#152242"/>
<path d="M92.6721 61.5131V65.3267L112.619 62.8376V59.0012L92.6721 61.5131Z" fill="white"/>
<path d="M92.4952 65.5152V61.3648L112.785 58.8015V62.9747H112.636L92.4952 65.5152ZM92.832 61.656V65.1327L112.476 62.6893V59.1954L92.832 61.656Z" fill="#152242"/>
<path d="M91.8848 59.8005V61.0393L111.832 58.5503V57.2943L91.8848 59.8005Z" fill="#152242"/>
<path d="M91.8848 61.045L92.6726 61.5017L112.619 59.0127L111.832 58.5388L91.8848 61.045Z" fill="#152242"/>
<path d="M91.8848 61.045L92.6726 61.5017L112.619 59.0127L111.832 58.5388L91.8848 61.045Z" fill="white"/>
<path d="M92.637 61.6559L91.3525 60.9423L111.853 58.3676L113.109 59.1211L92.637 61.6559ZM92.403 61.1307L92.7055 61.3076L112.116 58.8928L111.79 58.6987L92.403 61.1307Z" fill="#152242"/>
<path d="M92.6721 55.867V59.6806L112.619 57.1972V53.3608L92.6721 55.867Z" fill="white"/>
<path d="M92.4952 59.869V55.7186L112.773 53.1667V57.3456H112.625L92.4952 59.869ZM92.832 56.0155V59.4865L112.476 57.0431V53.5492L92.832 56.0155Z" fill="#152242"/>
<path d="M91.8848 54.1544V55.3932L111.832 52.9099V51.6482L91.8848 54.1544Z" fill="#152242"/>
<path d="M91.8848 55.399L92.6726 55.8557L112.619 53.3724L111.832 52.8928L91.8848 55.399Z" fill="#152242"/>
<path d="M91.8848 55.399L92.6726 55.8557L112.619 53.3724L111.832 52.8928L91.8848 55.399Z" fill="white"/>
<path d="M92.637 56.0269L91.3525 55.2961L111.853 52.7214L113.109 53.475L92.637 56.0269ZM92.403 55.5074L92.7055 55.6843L112.116 53.2638L111.79 53.0925L92.403 55.5074Z" fill="#152242"/>
<path d="M92.6721 50.2667V54.0802L112.619 51.5969V47.7605L92.6721 50.2667Z" fill="white"/>
<path d="M92.4952 54.2744V50.1183L112.773 47.5721V51.7453H112.625L92.4952 54.2744ZM92.832 50.4152V53.8919L112.476 51.4485V47.9546L92.832 50.4152Z" fill="#152242"/>
<path d="M91.8848 48.5597V49.7928L111.832 47.3094V46.0535L91.8848 48.5597Z" fill="#152242"/>
<path d="M91.8848 49.7986L92.6726 50.2553L112.619 47.7719L111.832 47.2924L91.8848 49.7986Z" fill="#152242"/>
<path d="M91.8848 49.7986L92.6726 50.2553L112.619 47.7719L111.832 47.2924L91.8848 49.7986Z" fill="white"/>
<path d="M92.637 50.4322L91.3525 49.6958L111.853 47.1211L113.109 47.8804L92.637 50.4322ZM92.403 49.907L92.7055 50.084L112.116 47.6634L111.79 47.4693L92.403 49.907Z" fill="#152242"/>
<path d="M92.6721 44.6891V48.5083L112.619 46.0192V42.1829L92.6721 44.6891Z" fill="white"/>
<path d="M92.4952 48.6968V44.5293L112.773 41.9832V46.1563H112.625L92.4952 48.6968ZM92.832 44.8376V48.3143L112.476 45.8709V42.3771L92.832 44.8376Z" fill="#152242"/>
<path d="M91.8848 42.9821V44.221L111.832 41.7319V40.476L91.8848 42.9821Z" fill="#152242"/>
<path d="M91.8848 44.2267L92.6726 44.6834L112.619 42.1943L111.832 41.7205L91.8848 44.2267Z" fill="#152242"/>
<path d="M91.8848 44.2267L92.6726 44.6834L112.619 42.1943L111.832 41.7205L91.8848 44.2267Z" fill="white"/>
<path d="M92.637 44.8546L91.3525 44.1182L111.853 41.5435L113.109 42.3027L92.637 44.8546ZM92.3973 44.3294L92.7055 44.5064L112.116 42.0915L111.79 41.8917L92.3973 44.3294Z" fill="#152242"/>
<path d="M92.6721 39.0659V42.8794L112.619 40.3961V36.5597L92.6721 39.0659Z" fill="white"/>
<path d="M92.4952 43.0734V38.9174L112.773 36.3712V40.533H112.625L92.4952 43.0734ZM92.832 39.2142V42.6909L112.476 40.2475V36.7537L92.832 39.2142Z" fill="#152242"/>
<path d="M91.8848 37.3589V38.5977L111.832 36.1086V34.8527L91.8848 37.3589Z" fill="#152242"/>
<path d="M91.8848 38.6035L92.6726 39.0602L112.619 36.5711L111.832 36.0973L91.8848 38.6035Z" fill="#152242"/>
<path d="M91.8848 38.6035L92.6726 39.0602L112.619 36.5711L111.832 36.0973L91.8848 38.6035Z" fill="white"/>
<path d="M92.637 39.2314L91.3525 38.495L111.853 35.9203L113.109 36.6796L92.637 39.2314ZM92.3973 38.7062L92.7055 38.8832L112.116 36.4683L111.79 36.2685L92.3973 38.7062Z" fill="#152242"/>
<path d="M92.6721 33.5226V37.3418L112.619 34.8527V31.0164L92.6721 33.5226Z" fill="white"/>
<path d="M92.4952 37.5302V33.3742L112.785 30.828V35.0012H112.636L92.4952 37.5302ZM92.832 33.671V37.1477L112.476 34.7043V31.2105L92.832 33.671Z" fill="#152242"/>
<path d="M91.8848 31.8156V33.0545L111.832 30.5654V29.3094L91.8848 31.8156Z" fill="#152242"/>
<path d="M91.8848 33.0602L92.6726 33.5169L112.619 31.0278L111.832 30.554L91.8848 33.0602Z" fill="#152242"/>
<path d="M91.8848 33.0602L92.6726 33.5169L112.619 31.0278L111.832 30.554L91.8848 33.0602Z" fill="white"/>
<path d="M92.637 33.6824L91.3525 32.9517L111.853 30.377L113.109 31.1362L92.637 33.6824ZM92.3973 33.1572L92.7055 33.3342L112.116 30.9193L111.79 30.7195L92.3973 33.1572Z" fill="#152242"/>
<path d="M92.6721 27.9278V31.7414L112.619 29.258V25.4216L92.6721 27.9278Z" fill="white"/>
<path d="M92.4952 31.9355V27.7794L112.773 25.2333V29.4065H112.625L92.4952 31.9355ZM92.832 28.0763V31.553L112.476 29.1153V25.6158L92.832 28.0763Z" fill="#152242"/>
<path d="M91.8848 26.2209V27.4597L111.832 24.9707V23.7147L91.8848 26.2209Z" fill="#152242"/>
<path d="M91.8848 27.4654L92.6726 27.9221L112.619 25.4331L111.832 24.9592L91.8848 27.4654Z" fill="#152242"/>
<path d="M91.8848 27.4654L92.6726 27.9221L112.619 25.4331L111.832 24.9592L91.8848 27.4654Z" fill="white"/>
<path d="M92.637 28.0934L91.3525 27.3569L111.853 24.7822L113.109 25.5415L92.637 28.0934ZM92.3973 27.5682L92.7055 27.7451L112.116 25.3303L111.79 25.1191L92.3973 27.5682Z" fill="#152242"/>
<path d="M68.4561 19.4388L92.6674 33.3799L92.9414 32.906L68.947 19.062L68.4561 19.4388Z" fill="#152242"/>
<path d="M68.4561 19.4388L92.6674 33.3799L92.9414 32.906L68.947 19.062L68.4561 19.4388Z" fill="white"/>
<path d="M92.7291 33.6082L92.5807 33.5283L68.1524 19.4616L68.9288 18.8394L93.1744 32.8204L92.7291 33.6082ZM68.7575 19.4102L92.6035 33.1116L92.712 32.9289L68.9574 19.2276L68.7575 19.4102Z" fill="#152242"/>
<path d="M68.4561 23.3265L92.6674 37.3018V33.3798L68.4561 19.4387V23.3265Z" fill="white"/>
<path d="M92.8379 37.593L92.581 37.4445L68.284 23.4064V19.1248L68.5409 19.2675L92.8379 33.2828V37.593ZM68.6209 23.2351L92.4954 37.0107V33.4769L68.6209 19.7299V23.2351Z" fill="#152242"/>
<path d="M68.9346 18.4683L92.4551 32.004V32.6263L68.9346 19.062V18.4683Z" fill="#152242"/>
<path d="M68.4561 13.884L92.6674 27.8251L92.9414 27.3512L68.947 13.5072L68.4561 13.884Z" fill="#152242"/>
<path d="M68.4561 13.884L92.6674 27.8251L92.9414 27.3512L68.947 13.5072L68.4561 13.884Z" fill="white"/>
<path d="M92.7291 28.0534L92.5807 27.9678L68.1524 13.9011L68.9288 13.3302L93.1744 27.2884L92.7291 28.0534ZM68.7518 13.8611L92.5978 27.5624L92.7063 27.3798L68.9574 13.7013L68.7518 13.8611Z" fill="#152242"/>
<path d="M68.4561 18.1771L92.6674 32.1467V27.8251L68.4561 13.884V18.1771Z" fill="white"/>
<path d="M92.8379 32.4436L92.581 32.2952L68.284 18.2684V13.5872L68.5409 13.7299L92.8379 27.7281V32.4436ZM68.6209 18.08L92.4954 31.8556V27.9222L68.6209 14.1752V18.08Z" fill="#152242"/>
<path d="M68.9346 12.9135L92.0099 26.198V26.8203L68.9346 13.5072V12.9135Z" fill="#152242"/>
<path d="M68.4561 30.6452L92.6674 44.5863L92.9414 44.1125L68.947 30.2684L68.4561 30.6452Z" fill="#152242"/>
<path d="M68.4561 30.6452L92.6674 44.5863L92.9414 44.1125L68.947 30.2684L68.4561 30.6452Z" fill="white"/>
<path d="M92.7298 44.8148L68.1816 30.6624L68.958 30.0916L93.2037 44.0726L92.7298 44.8148ZM68.7525 30.6225L92.5985 44.3238L92.707 44.1411L68.9523 30.4398L68.7525 30.6225Z" fill="#152242"/>
<path d="M68.4561 34.533L92.6674 48.5083V44.5863L68.4561 30.6453V34.533Z" fill="white"/>
<path d="M92.8379 48.7995L92.581 48.6511L68.284 34.6301V30.3541L68.5409 30.4968L92.8379 44.4893V48.7995ZM68.6209 34.436L92.4954 48.2115V44.6834L68.6209 30.9364V34.436Z" fill="#152242"/>
<path d="M68.9346 29.6748L92.4551 43.2048V43.8271L68.9346 30.2685V29.6748Z" fill="#152242"/>
<path d="M68.4561 25.0848L92.6674 39.0259L92.9414 38.5521L68.947 24.7137L68.4561 25.0848Z" fill="#152242"/>
<path d="M68.4561 25.0848L92.6674 39.0259L92.9414 38.5521L68.947 24.7137L68.4561 25.0848Z" fill="white"/>
<path d="M92.7291 39.2543L92.5807 39.1744L68.1524 25.1191L68.9288 24.5482L93.1744 38.5293L92.7291 39.2543ZM68.7518 25.0677L92.5978 38.769L92.7063 38.5863L68.9516 24.885L68.7518 25.0677Z" fill="#152242"/>
<path d="M68.4561 29.3836L92.6674 43.3533V39.0259L68.4561 25.0848V29.3836Z" fill="white"/>
<path d="M92.8379 43.6444L92.581 43.5017L68.284 29.4807V24.7937L68.5409 24.9421L92.8379 38.9289V43.6444ZM68.6209 29.2866L92.4954 43.0621V39.123L68.6209 25.376V29.2866Z" fill="#152242"/>
<path d="M69.5454 23.9888L92.6207 37.2733L92.0099 38.0269L68.9346 24.7081L69.5454 23.9888Z" fill="#152242"/>
<path d="M68.4561 41.8518L92.6674 55.7871L92.9414 55.3133L68.947 41.475L68.4561 41.8518Z" fill="#152242"/>
<path d="M68.4561 41.8518L92.6674 55.7871L92.9414 55.3133L68.947 41.475L68.4561 41.8518Z" fill="white"/>
<path d="M92.7298 56.0155L68.1816 41.8689L68.958 41.298L93.2037 55.279L92.7298 56.0155ZM68.7525 41.8289L92.5985 55.5302L92.707 55.3475L68.958 41.6748L68.7525 41.8289Z" fill="#152242"/>
<path d="M68.4561 45.7395L92.6674 59.7091V55.7872L68.4561 41.8461V45.7395Z" fill="white"/>
<path d="M92.8379 60.0003L92.581 59.8576L68.284 45.8366V41.5549L68.5409 41.7034L92.8379 55.6901V60.0003ZM68.6209 45.671L92.4954 59.418V55.8842L68.6209 42.1372V45.671Z" fill="#152242"/>
<path d="M68.9346 40.8756L92.4551 54.4114V55.0336L68.9346 41.4693V40.8756Z" fill="#152242"/>
<path d="M68.4561 36.2913L92.6674 50.2324L92.9414 49.7586L68.947 35.9146L68.4561 36.2913Z" fill="#152242"/>
<path d="M68.4561 36.2913L92.6674 50.2324L92.9414 49.7586L68.947 35.9146L68.4561 36.2913Z" fill="white"/>
<path d="M92.7298 50.4608L68.1816 36.3142L68.958 35.7433L93.2037 49.7243L92.7298 50.4608ZM68.7525 36.2742L92.5985 50.0041L92.707 49.8157L68.9523 36.1144L68.7525 36.2742Z" fill="#152242"/>
<path d="M68.4561 40.5845L92.6674 54.5598V50.2325L68.4561 36.2914V40.5845Z" fill="white"/>
<path d="M92.8379 54.851L92.581 54.7025L68.284 40.6815V36.0002L68.5409 36.143L92.8379 50.1354V54.851ZM68.6209 40.4874L92.4954 54.2687V50.3295L68.6209 36.5826V40.4874Z" fill="#152242"/>
<path d="M69.5055 35.1667L92.5807 48.4513L92.0099 49.2277L68.9346 35.9146L69.5055 35.1667Z" fill="#152242"/>
<path d="M68.54 53.1611L92.7514 67.1022L93.0254 66.6226L69.031 52.7843L68.54 53.1611Z" fill="#152242"/>
<path d="M68.54 53.1611L92.7514 67.1022L93.0254 66.6226L69.031 52.7843L68.54 53.1611Z" fill="white"/>
<path d="M92.8147 67.3305L68.2665 53.1782L69.0429 52.6073L93.2886 66.5883L92.8147 67.3305ZM68.8374 53.1382L92.6834 66.8395L92.7919 66.6569L69.0372 52.9555L68.8374 53.1382Z" fill="#152242"/>
<path d="M68.54 57.0489L92.7514 71.0242V67.1022L68.54 53.1611V57.0489Z" fill="white"/>
<path d="M92.9233 71.3153L92.6664 71.1668L68.3694 57.1458V52.8699L68.6263 53.0126L92.9233 67.0051V71.3153ZM68.7062 56.9517L92.5865 70.7272V67.1992L68.7062 53.4522V56.9517Z" fill="#152242"/>
<path d="M69.0205 52.1163L92.5411 65.7206V66.3486L69.0205 52.7843V52.1163Z" fill="#152242"/>
<path d="M68.4561 47.4979L92.6674 61.4333L92.9414 60.9594L68.947 47.1211L68.4561 47.4979Z" fill="#152242"/>
<path d="M68.4561 47.4979L92.6674 61.4333L92.9414 60.9594L68.947 47.1211L68.4561 47.4979Z" fill="white"/>
<path d="M92.7291 61.6559L92.5807 61.5702L68.1524 47.515L68.9288 46.9441L93.1744 60.9308L92.7291 61.6559ZM68.7518 47.4636L92.5978 61.1649L92.7063 60.9822L68.9516 47.2809L68.7518 47.4636Z" fill="#152242"/>
<path d="M68.4561 51.791L92.6674 65.7606V61.4333L68.4561 47.4922V51.791Z" fill="white"/>
<path d="M92.8379 66.0518L92.581 65.9091L68.284 51.8881V47.2068L68.5409 47.3495L92.8379 61.3363V66.0518ZM68.6209 51.694L92.4954 65.4695V61.5304L68.6209 47.7834V51.694Z" fill="#152242"/>
<path d="M69.5226 46.3733L92.5979 59.6579L92.0099 60.4343L68.9346 47.1212L69.5226 46.3733Z" fill="#152242"/>
<path d="M68.54 64.4018L92.7514 78.3372L93.0254 77.8633L69.031 64.025L68.54 64.4018Z" fill="#152242"/>
<path d="M68.54 64.4018L92.7514 78.3372L93.0254 77.8633L69.031 64.025L68.54 64.4018Z" fill="white"/>
<path d="M92.8147 78.5656L68.2665 64.419L69.0429 63.8481L93.2886 77.8349L92.8147 78.5656ZM68.8374 64.3791L92.6834 78.0804L92.7919 77.8977L69.0372 64.1964L68.8374 64.3791Z" fill="#152242"/>
<path d="M68.54 68.2896L92.7514 82.2592V78.3372L68.54 64.4019V68.2896Z" fill="white"/>
<path d="M92.9233 82.5504L92.6664 82.4076L68.3694 68.3866V64.105L68.6263 64.2534L92.9233 78.2402V82.5504ZM68.7062 68.1925L92.5865 81.9681V78.4343L68.7062 64.6873V68.1925Z" fill="#152242"/>
<path d="M69.0205 63.3229L92.5411 76.9614V77.5837L69.0205 64.0194V63.3229Z" fill="#152242"/>
<path d="M68.4561 58.6987L92.6674 72.6398L92.9414 72.166L68.947 58.3276L68.4561 58.6987Z" fill="#152242"/>
<path d="M68.4561 58.6987L92.6674 72.6398L92.9414 72.166L68.947 58.3276L68.4561 58.6987Z" fill="white"/>
<path d="M92.7298 72.8681L68.1816 58.7215L68.958 58.1506L93.2037 72.1317L92.7298 72.8681ZM68.7525 58.6816L92.5985 72.3829L92.707 72.2002L68.9523 58.4989L68.7525 58.6816Z" fill="#152242"/>
<path d="M68.4561 62.9918L92.6674 76.9671V72.6398L68.4561 58.6987V62.9918Z" fill="white"/>
<path d="M92.8379 77.2583L92.581 77.1099L68.284 63.0889V58.4076L68.5409 58.556L92.8379 72.5428V77.2583ZM68.6209 62.8948L92.4954 76.676V72.7369L68.6151 58.9899L68.6209 62.8948Z" fill="#152242"/>
<path d="M69.5854 57.6825L92.6607 70.9671L92.0099 71.6407L68.9346 58.3219L69.5854 57.6825Z" fill="#152242"/>
<path d="M68.4561 69.5512L92.6674 83.4866L92.9414 83.0128L68.947 69.1744L68.4561 69.5512Z" fill="#152242"/>
<path d="M68.4561 69.5512L92.6674 83.4866L92.9414 83.0128L68.947 69.1744L68.4561 69.5512Z" fill="white"/>
<path d="M92.7298 83.7208L68.1816 69.5684L68.958 68.9976L93.2037 82.9786L92.7298 83.7208ZM68.7525 69.5285L92.5985 83.2298L92.707 83.0471L68.9523 69.3458L68.7525 69.5285Z" fill="#152242"/>
<path d="M68.4561 73.8443L92.6674 87.814V83.4866L68.4561 69.5455V73.8443Z" fill="white"/>
<path d="M92.8379 88.1051L92.581 87.9624L68.284 73.9414V69.2544L68.5409 69.4028L92.8379 83.3896V88.1051ZM68.6209 73.7473L92.4954 87.5228V83.5837L68.6151 69.8367L68.6209 73.7473Z" fill="#152242"/>
<path d="M68.9346 68.5808L92.655 82.2022L92.0099 82.4876L68.9346 69.1745V68.5808Z" fill="#152242"/>
<path d="M91.8843 26.2209L111.831 23.7147L70.9669 0.411011L68.9346 12.9135L91.8843 26.2209Z" fill="white"/>
<path d="M91.8275 26.4892L68.6494 13.0448L70.8017 0L112.659 23.8745L91.8275 26.4892ZM69.2203 12.7879L91.9245 25.9526L111.015 23.5548L71.1613 0.81637L69.2203 12.7879Z" fill="#152242"/>
<path d="M107.03 22.7614L72.137 2.85449L70.6299 12.1086L92.2094 24.6224L107.03 22.7614Z" fill="white"/>
<path d="M92.1525 24.8965L92.0726 24.8508L70.3389 12.2456L71.9431 2.43774L107.852 22.9212L92.1525 24.8965ZM70.9212 11.9887L92.2667 24.3484L106.196 22.5958L72.337 3.27695L70.9212 11.9887Z" fill="#152242"/>
<path d="M72.137 5.65755L71.1151 11.9202L77.589 16.1448L70.6299 12.1086L72.137 2.85449L107.03 22.7614L103.011 23.2637L72.137 5.65755Z" fill="#152242"/>
<defs>
<linearGradient id="paint0_linear_154_146" x1="91.0675" y1="83.4752" x2="125.435" y2="23.943" gradientUnits="userSpaceOnUse">
<stop stop-color="#CBCDD1"/>
<stop offset="1" stop-color="#AFAFB5" stop-opacity="0"/>
</linearGradient>
<linearGradient id="paint1_linear_154_146" x1="110.924" y1="131.07" x2="134.039" y2="91.028" gradientUnits="userSpaceOnUse">
<stop stop-color="#CBCDD1"/>
<stop offset="1" stop-color="#AFAFB5" stop-opacity="0"/>
</linearGradient>
</defs>
</svg>
