<svg width="1301" height="370" viewBox="0 0 1301 370" fill="none" xmlns="http://www.w3.org/2000/svg">
<mask id="mask0_421_38" style="mask-type:luminance" maskUnits="userSpaceOnUse" x="0" y="0" width="1301" height="370">
<path d="M1300.11 0H0V369.887H1300.11V0Z" fill="white"/>
</mask>
<g mask="url(#mask0_421_38)">
<path d="M440.259 123.613C449.8 123.359 459.281 125.193 468.038 128.986C475.312 132.166 481.469 137.447 485.719 144.151C489.865 151.129 491.968 159.13 491.787 167.244C491.976 175.346 489.873 183.336 485.719 190.294C481.472 197.011 475.315 202.306 468.038 205.502C459.244 209.272 449.737 211.09 440.172 210.831H389.598V178.726H437.703C441.122 178.948 444.499 177.864 447.15 175.693C449.297 173.377 450.49 170.337 450.49 167.179C450.49 164.021 449.297 160.981 447.15 158.665C444.467 156.562 441.106 155.514 437.703 155.719H393.109L411.7 137.175V243.414H370.443V123.613H440.259Z" fill="#252525"/>
<path d="M548.299 183.535L540.975 228.076L525.287 210.745H616.294V243.327H500.194L508.862 183.449L500.194 123.527H616.208V156.109H525.2L540.888 138.778L548.299 183.535ZM616.208 169.324V197.747H520.043V169.324H616.208Z" fill="#252525"/>
<path d="M746.437 213.388L735.252 216.118V123.613H775.209V243.414H723.726L664.138 151.083L675.362 148.397V243.414H635.405V123.613H688.58L746.437 213.388Z" fill="#252525"/>
<path d="M921.559 191.681C921.189 198.653 919.724 205.525 917.226 212.045C914.722 218.57 910.965 224.545 906.177 229.636C901.012 235.04 894.701 239.215 887.714 241.854C879.226 244.971 870.226 246.442 861.19 246.187C852.269 246.232 843.389 244.887 834.887 242.2C826.89 239.669 819.462 235.624 813.002 230.286C806.613 224.926 801.505 218.205 798.047 210.615C794.29 202.046 792.441 192.761 792.633 183.405C792.441 174.036 794.29 164.737 798.047 156.152C801.526 148.529 806.72 141.812 813.216 136.525C819.896 131.145 827.545 127.1 835.748 124.61C856.53 118.633 878.664 119.391 898.977 126.776C908.155 130.387 916.323 136.17 922.769 143.631C928.774 150.736 932.879 159.248 934.693 168.37H893.299C892.275 165.297 890.283 162.638 887.629 160.788C884.506 158.573 881.012 156.944 877.313 155.979C872.88 154.84 868.319 154.287 863.745 154.332C858.252 154.19 852.795 155.255 847.758 157.452C843.382 159.415 839.761 162.744 837.441 166.941C834.859 172.032 833.621 177.7 833.841 183.405C833.614 189.319 835.03 195.181 837.918 200.346C840.579 204.823 844.606 208.329 849.401 210.355C855.122 212.607 861.24 213.698 867.387 213.561C873.435 213.652 879.461 212.863 885.288 211.222C890.055 209.946 894.423 207.487 897.981 204.072C901.268 200.701 903.367 196.352 903.964 191.681H921.559ZM870.119 207.625V179.376H935.646V243.414H907.038L900.976 197.573L908.169 207.625H870.119Z" fill="#252525"/>
<path d="M996.058 188.474C995.937 192.357 996.727 196.213 998.349 199.74C999.879 202.849 1002.35 205.396 1005.41 207.019C1009.25 208.864 1013.48 209.742 1017.72 209.575C1022.02 209.744 1026.3 208.899 1030.2 207.105C1033.28 205.51 1035.74 202.954 1037.22 199.826C1038.78 196.247 1039.53 192.374 1039.44 188.474V123.483H1080.7V190.641C1080.92 200.925 1078.2 211.059 1072.85 219.844C1067.52 228.271 1059.9 235.005 1050.88 239.254C1040.46 243.856 1029.2 246.232 1017.81 246.232C1006.42 246.232 995.162 243.856 984.746 239.254C975.554 234.956 967.82 228.063 962.498 219.425C957.176 210.787 954.501 200.782 954.8 190.641V123.613H996.058V188.474Z" fill="#252525"/>
<path d="M1099.89 123.613H1141.11V243.414H1099.89V123.613Z" fill="#252525"/>
<path d="M1271.33 213.388L1260.15 216.118V123.613H1300.11V243.414H1248.49L1189.03 151.083L1200.26 148.397V243.414H1160.3V123.613H1213.43L1271.33 213.388Z" fill="#252525"/>
<path d="M318.266 219.627C317.608 201.319 312.98 183.371 304.701 167.027C296.119 150.439 284.336 135.713 270.032 123.7C253.508 109.869 234.339 99.5494 213.694 93.3709C201.619 89.7552 190.411 83.7097 180.758 75.6063L179.631 74.6532C176.627 71.7687 174.293 68.2591 172.796 64.3736C171.298 60.4878 170.673 56.3204 170.964 52.1663C171.413 47.4611 173.135 42.9673 175.947 39.1681C184.107 27.5997 195.334 18.5367 208.364 12.9982L210.27 12.0884C211.667 11.5828 212.805 10.5432 213.435 9.19848C214.065 7.85366 214.134 6.31387 213.629 4.91769C213.123 3.5215 212.083 2.38335 210.739 1.75362C209.393 1.1239 207.853 1.05417 206.457 1.55978C204.947 2.05456 203.494 2.70814 202.123 3.50955C195.165 7.72036 187.409 10.4414 179.345 11.5005C171.281 12.5595 163.085 11.9335 155.276 9.66205C150.974 8.48233 146.458 8.30635 142.078 9.14777C137.697 9.98912 133.568 11.8253 130.01 14.5147C114.625 25.5632 107.475 51.993 120.519 67.3742C123.502 70.7658 125.391 74.9797 125.936 79.4624C126.11 81.6888 125.467 83.9017 124.127 85.6879C122.787 87.474 120.842 88.711 118.656 89.1677C93.0812 94.4698 69.1891 105.937 49.057 122.573C34.5128 134.662 22.5586 149.56 13.9107 166.377C5.4558 182.859 0.707846 200.989 -0.000426728 219.497C-0.579864 238.738 2.90277 257.885 10.2205 275.689C17.5382 293.495 28.5267 309.558 42.4698 322.833C57.68 337.489 75.6515 348.976 95.3409 356.629C100.498 358.405 105.612 360.311 110.812 361.828C116.013 363.344 121.43 364.644 126.846 365.641C132.264 366.638 137.768 367.244 143.272 367.85L159.826 368.673L176.337 367.764C181.798 367.157 187.259 366.29 192.719 365.467C198.179 364.644 203.38 362.911 208.71 361.611C214.041 360.311 218.981 358.102 224.094 356.326C243.652 348.592 261.466 337.028 276.489 322.313C290.222 309.05 301.032 293.065 308.226 275.381C315.42 257.699 318.839 238.708 318.266 219.627Z" fill="#252525"/>
<path d="M79.437 290.294C67.9152 282.131 58.3237 271.542 51.3379 259.274C44.3521 247.004 40.1417 233.352 39.0035 219.28C38.3306 204.795 40.7802 190.334 46.1862 176.878C51.5921 163.423 59.8282 151.286 70.3361 141.291C79.861 131.884 90.8718 124.111 102.926 118.284C103.277 118.106 103.677 118.048 104.065 118.117C104.453 118.187 104.808 118.379 105.077 118.668C105.345 118.956 105.513 119.323 105.555 119.715C105.597 120.107 105.51 120.502 105.309 120.841C91.1379 142.851 68.9059 180.849 68.0392 215.251C67.8086 231.981 72.4788 248.412 81.4739 262.521C81.8553 263.056 82.3925 263.461 83.0122 263.681C83.6318 263.901 84.3042 263.925 84.9381 263.75C85.5713 263.575 86.1362 263.209 86.5553 262.703C86.9744 262.196 87.2276 261.573 87.281 260.918C88.1981 248.227 92.3126 235.975 99.2416 225.303C99.5155 224.848 99.936 224.501 100.433 224.317C100.931 224.133 101.476 224.123 101.979 224.289C102.483 224.455 102.915 224.788 103.205 225.232C103.495 225.676 103.626 226.205 103.575 226.733C102.578 241.247 101.755 268.327 102.795 291.984C102.847 293.259 102.554 294.525 101.947 295.648C101.34 296.772 100.442 297.71 99.3469 298.366C98.252 299.023 96.9998 299.371 95.7234 299.377C94.4463 299.382 93.1919 299.043 92.0913 298.396C87.7079 295.962 83.4817 293.256 79.437 290.294Z" fill="#B8DE00"/>
<path d="M282.165 219.41C280.649 247.79 264.354 273.916 241.039 290.771C235.247 295.006 229.099 298.732 222.664 301.906C221.525 302.491 220.249 302.757 218.97 302.676C217.692 302.595 216.459 302.171 215.403 301.447C214.345 300.724 213.505 299.728 212.967 298.566C212.429 297.403 212.217 296.117 212.35 294.843C214.627 271.918 214.888 248.837 213.13 225.866C213.078 225.378 213.184 224.888 213.432 224.464C213.68 224.042 214.057 223.709 214.507 223.516C214.957 223.321 215.458 223.277 215.935 223.388C216.412 223.499 216.842 223.76 217.16 224.133C224.831 232.365 230.162 245.017 230.162 265.424C230.136 266.112 230.332 266.79 230.722 267.358C231.111 267.925 231.673 268.353 232.325 268.576C232.976 268.8 233.682 268.807 234.339 268.599C234.995 268.391 235.566 267.976 235.969 267.418C243.34 255.839 248.116 242.802 249.966 229.203C253.65 181.975 223.314 134.315 212.35 118.847C212.113 118.517 211.993 118.116 212.01 117.709C212.027 117.303 212.181 116.913 212.446 116.604C212.71 116.295 213.071 116.083 213.47 116.003C213.869 115.923 214.283 115.978 214.647 116.161C227.866 122.143 239.959 130.35 250.399 140.424C261.075 150.523 269.441 162.811 274.923 176.444C280.407 190.077 282.877 204.734 282.165 219.41Z" fill="#B8DE00"/>
<path d="M159.177 323.223C174.255 323.223 186.479 274.068 186.479 213.431C186.479 152.795 174.255 103.639 159.177 103.639C144.098 103.639 131.874 152.795 131.874 213.431C131.874 274.068 144.098 323.223 159.177 323.223Z" fill="white"/>
<path d="M371.72 283.945H392.224V349.945H371.72V283.945ZM423.112 283.945H443.616V349.945H423.112V283.945ZM383.248 307.265H431.384V325.393H383.248V307.265ZM483.7 351.441C477.188 351.441 471.468 350.326 466.54 348.097C461.612 345.867 457.769 342.758 455.012 338.769C452.255 334.721 450.876 330.057 450.876 324.777C450.876 319.379 452.255 314.686 455.012 310.697C457.769 306.649 461.612 303.539 466.54 301.369C471.468 299.139 477.217 298.025 483.788 298.025C490.3 298.025 496.02 299.139 500.948 301.369C505.876 303.539 509.689 306.649 512.388 310.697C515.145 314.686 516.524 319.379 516.524 324.777C516.524 330.057 515.145 334.721 512.388 338.769C509.689 342.758 505.876 345.867 500.948 348.097C496.02 350.326 490.271 351.441 483.7 351.441ZM483.788 336.657C486.428 336.657 488.657 336.187 490.476 335.249C492.353 334.31 493.761 332.961 494.7 331.201C495.697 329.382 496.196 327.241 496.196 324.777C496.196 322.254 495.697 320.113 494.7 318.353C493.761 316.534 492.353 315.155 490.476 314.217C488.657 313.278 486.428 312.809 483.788 312.809C481.148 312.809 478.889 313.278 477.012 314.217C475.135 315.155 473.697 316.534 472.7 318.353C471.761 320.113 471.292 322.225 471.292 324.689C471.292 327.211 471.761 329.382 472.7 331.201C473.697 332.961 475.135 334.31 477.012 335.249C478.889 336.187 481.148 336.657 483.788 336.657ZM520.739 299.521H540.891L544.323 320.377V349.945H524.171V317.297L520.739 299.521ZM561.307 298.025C566 298.025 569.99 298.993 573.275 300.929C576.56 302.865 579.054 305.622 580.755 309.201C582.515 312.721 583.395 316.857 583.395 321.609V349.945H563.243V324.513C563.243 321.227 562.451 318.705 560.867 316.945C559.342 315.185 557.142 314.305 554.267 314.305C552.214 314.305 550.424 314.774 548.899 315.713C547.432 316.651 546.288 317.971 545.467 319.673C544.704 321.374 544.323 323.427 544.323 325.833L538.251 322.665C539.014 317.209 540.48 312.662 542.651 309.025C544.88 305.387 547.608 302.659 550.835 300.841C554.062 298.963 557.552 298.025 561.307 298.025ZM600.291 298.025C604.984 298.025 608.974 298.993 612.259 300.929C615.603 302.865 618.126 305.622 619.827 309.201C621.587 312.721 622.467 316.857 622.467 321.609V349.945H602.315V324.513C602.315 321.227 601.523 318.705 599.939 316.945C598.414 315.185 596.214 314.305 593.339 314.305C591.286 314.305 589.496 314.774 587.971 315.713C586.504 316.651 585.36 317.971 584.539 319.673C583.776 321.374 583.395 323.427 583.395 325.833L577.323 322.665C578.086 317.209 579.552 312.662 581.723 309.025C583.952 305.387 586.651 302.659 589.819 300.841C593.046 298.963 596.536 298.025 600.291 298.025ZM661.151 351.441C654.932 351.441 649.388 350.326 644.519 348.097C639.649 345.867 635.807 342.729 632.991 338.681C630.175 334.633 628.767 329.91 628.767 324.513C628.767 319.233 630.116 314.598 632.815 310.609C635.572 306.619 639.297 303.539 643.991 301.369C648.743 299.139 654.052 298.025 659.919 298.025C666.079 298.025 671.329 299.315 675.671 301.897C680.012 304.419 683.327 308.027 685.615 312.721C687.961 317.414 689.135 322.929 689.135 329.265H645.223V319.321H677.519L671.623 322.665C671.329 320.142 670.684 318.059 669.687 316.417C668.748 314.715 667.457 313.425 665.815 312.545C664.231 311.665 662.324 311.225 660.095 311.225C657.631 311.225 655.519 311.753 653.759 312.809C652.057 313.865 650.737 315.331 649.799 317.209C648.919 319.086 648.479 321.227 648.479 323.633C648.479 326.625 649.124 329.147 650.415 331.201C651.764 333.254 653.788 334.838 656.487 335.953C659.185 337.009 662.529 337.537 666.519 337.537C670.332 337.537 674.057 337.038 677.695 336.041C681.391 335.043 684.764 333.577 687.815 331.641V343.433C684.236 346.014 680.1 348.009 675.407 349.417C670.713 350.766 665.961 351.441 661.151 351.441ZM705.519 350.913C703.466 350.913 701.588 350.443 699.887 349.505C698.186 348.507 696.836 347.158 695.839 345.457C694.9 343.755 694.431 341.878 694.431 339.825C694.431 337.713 694.9 335.835 695.839 334.193C696.836 332.491 698.186 331.171 699.887 330.233C701.588 329.235 703.466 328.737 705.519 328.737C707.631 328.737 709.508 329.235 711.151 330.233C712.852 331.171 714.172 332.491 715.111 334.193C716.108 335.835 716.607 337.713 716.607 339.825C716.607 341.878 716.108 343.755 715.111 345.457C714.172 347.158 712.852 348.507 711.151 349.505C709.508 350.443 707.631 350.913 705.519 350.913ZM785.293 328.209C784.824 332.843 783.152 336.921 780.277 340.441C777.403 343.902 773.648 346.601 769.013 348.537C764.437 350.473 759.275 351.441 753.525 351.441C747.248 351.441 741.675 350.326 736.805 348.097C731.995 345.867 728.24 342.729 725.541 338.681C722.843 334.633 721.493 329.998 721.493 324.777C721.493 319.438 722.843 314.774 725.541 310.785C728.24 306.795 731.995 303.686 736.805 301.457C741.675 299.169 747.248 298.025 753.525 298.025C759.275 298.025 764.437 298.993 769.013 300.929C773.648 302.865 777.403 305.563 780.277 309.025C783.152 312.486 784.824 316.563 785.293 321.257H765.317C764.731 318.499 763.381 316.417 761.269 315.009C759.157 313.542 756.576 312.809 753.525 312.809C751.179 312.809 749.125 313.278 747.365 314.217C745.605 315.097 744.256 316.446 743.317 318.265C742.379 320.025 741.909 322.195 741.909 324.777C741.909 327.358 742.379 329.529 743.317 331.289C744.256 333.049 745.605 334.398 747.365 335.337C749.125 336.217 751.179 336.657 753.525 336.657C756.576 336.657 759.157 335.894 761.269 334.369C763.381 332.785 764.731 330.731 765.317 328.209H785.293ZM791.842 282.185H811.994V349.945H791.842V282.185ZM830.034 298.025C834.903 298.025 839.039 298.993 842.442 300.929C845.903 302.865 848.543 305.622 850.362 309.201C852.18 312.721 853.09 316.857 853.09 321.609V349.945H832.938V324.513C832.938 321.227 832.058 318.705 830.298 316.945C828.596 315.185 826.132 314.305 822.906 314.305C820.676 314.305 818.74 314.774 817.098 315.713C815.455 316.651 814.194 317.971 813.314 319.673C812.434 321.374 811.994 323.427 811.994 325.833L805.922 322.665C806.684 317.209 808.21 312.662 810.498 309.025C812.844 305.387 815.69 302.659 819.034 300.841C822.378 298.963 826.044 298.025 830.034 298.025Z" fill="#252525"/>
</g>
</svg>
